<svg id="Layer_1" data-name="Layer 1" xmlns="http://www.w3.org/2000/svg" viewBox="0 0 60 100">
  <title>bee</title>
  <g>
    <path d="M56.968,87.389C55.927,83.9,46.14,64.17,44.2,60.391a10.368,10.368,0,0,0,3.931-4.14,3.3,3.3,0,0,0,2.614,1.885c2.258,0,4.088-3.56,4.088-7.952S53,42.233,50.744,42.233a3.288,3.288,0,0,0-2.6,1.869,10.336,10.336,0,0,0-4.018-4.2c1.738-3.366,11.79-23.614,12.846-27.149C58.107,8.94,60.777-.164,51.859,1.694c-9.031,1.881-11.8,5.574-11.8,11.054,0,5.291-.342,14.567-.589,20.571-.268-4.819-.608-10.96-.608-11.186,0-.373-1.115-8.176-6.689-3.717S28.066,28.3,29.946,32.141c1.4,2.859,5.028,5.975,6.8,7.386a10.15,10.15,0,0,0-4.829,4.7,16.088,16.088,0,0,0-10.991-6c.268,1.554,1.824,6.268,1.824,11.935a43.669,43.669,0,0,1-1.906,12.45,16,16,0,0,0,11.22-6.226,10.108,10.108,0,0,0,4.565,4.364c-1.888,1.585-5.607,4.9-6.682,7.243-1.459,3.184-3.345,9.265,2.229,13.724S38.864,78.377,38.864,78c0-.225.34-6.366.608-11.186.247,6,.589,15.28.589,20.571,0,5.48,2.767,9.173,11.8,11.054C60.777,100.3,58.107,91.2,56.968,87.389Z" style="fill: #ffc908"/>
    <path d="M19.08,50.265a59.127,59.127,0,0,1,1.478-12.077,19.859,19.859,0,0,0-2.143-.118,15.715,15.715,0,0,0-3.759.48,69.913,69.913,0,0,1,1.38,11.842,59.534,59.534,0,0,1-1.423,11.83,14.348,14.348,0,0,0,3.8.543,19.572,19.572,0,0,0,2.224-.127A47.73,47.73,0,0,1,19.08,50.265Z" style="fill: #ffc908"/>
    <path d="M14.168,38.677a21.324,21.324,0,0,0-4.9,2.075c.137,2.3,1.219,5.848,1.219,9.64,0,3.841-1.084,7.126-1.225,9.426a20.783,20.783,0,0,0,4.944,2.288,57.389,57.389,0,0,1-1.593-11.714C12.617,45.191,13.934,40.577,14.168,38.677Z" style="fill: #ffc908"/>
    <path d="M8.392,41.283c-4.241,2.688-7.256,6.46-7.256,8.883,0,2.181,3.016,6.174,7.258,9.082-.122-2.28-1.447-5.294-1.447-8.83C6.947,46.908,8.271,43.559,8.392,41.283Z" style="fill: #ffc908"/>
  </g>
</svg>
