<?xml version="1.0" encoding="utf-8"?>
<!-- Generator: Adobe Illustrator 22.0.1, SVG Export Plug-In . SVG Version: 6.00 Build 0)  -->
<svg version="1.1" id="Layer_1" xmlns="http://www.w3.org/2000/svg" xmlns:xlink="http://www.w3.org/1999/xlink" x="0px" y="0px"
	 viewBox="0 0 95 150" style="enable-background:new 0 0 95 150;" xml:space="preserve">
<style type="text/css">
	.st0{fill:#009edb;}
</style>
<g>
	<polygon class="st0" points="34.9,146.3 60,146.3 64.4,136.2 30.4,136.2 	"/>
	<path class="st0" d="M92.4,101.8l-15.8-8c1.8-8.1,2.8-17.1,2.8-26.5C79.3,31.2,53.9,2,47.3,2c-7.7,0-32.1,29.2-32.1,65.2
		c0,9.5,1,18.6,2.8,26.8l-15.2,7.8C2.3,102,2,102.5,2,103v32.2c0,1,1.3,1.7,2.4,1.3l22.1-10.8l3.4,7.7l35.1-0.1l3.3-7.8l22.6,11
		c1.1,0.5,2.4-0.2,2.4-1.3V103C93.2,102.5,92.9,102,92.4,101.8z M46.7,66.3c-7.6,0-13.8-6.2-13.8-13.8c0-7.6,6.2-13.8,13.8-13.8
		c7.6,0,13.8,6.2,13.8,13.8C60.6,60.1,54.4,66.3,46.7,66.3z"/>
</g>
</svg>
