<svg id="Layer_1" data-name="Layer 1" xmlns="http://www.w3.org/2000/svg" viewBox="0 0 100 300">
  <title>radio_button_art</title>
  <path d="M49.667,84.978A34.644,34.644,0,1,1,84.312,50.333,34.683,34.683,0,0,1,49.667,84.978Zm0-63.289A28.644,28.644,0,1,0,78.312,50.333,28.677,28.677,0,0,0,49.667,21.689Z" style="fill: #ee2e65"/>
  <path d="M49.667,184.478a34.644,34.644,0,1,1,34.645-34.644A34.683,34.683,0,0,1,49.667,184.478Zm0-63.289a28.644,28.644,0,1,0,28.645,28.645A28.677,28.677,0,0,0,49.667,121.189Z" style="fill: #ee2e65"/>
  <g>
    <path d="M22.666,241.431c.235-.749.505-1.482.8-2.2a23.493,23.493,0,0,1-3.958-5.658,34.39,34.39,0,0,0-3.482,9.656c.437-.2.882-.4,1.351-.579A26.4,26.4,0,0,1,22.666,241.431Z" style="fill: #ee2e65"/>
    <path d="M56.923,277.889l-.093-.073a28.6,28.6,0,0,1-6.83.829c-.806,0-1.6-.042-2.39-.107a38.846,38.846,0,0,1-3.735,5.554,34.455,34.455,0,0,0,19.349-2.075,37.252,37.252,0,0,1-5.29-3.328C57.589,278.411,57.252,278.147,56.923,277.889Z" style="fill: #ee2e65"/>
    <path d="M26.514,266.369c-1,.267-2.022.511-3.094.711a12.235,12.235,0,0,1-3.5.072,34.833,34.833,0,0,0,4.963,6.671,23.118,23.118,0,0,1,2.589-6.165Q26.975,267.027,26.514,266.369Z" style="fill: #ee2e65"/>
    <path d="M74,265.6a28.689,28.689,0,0,1,2.384,6.018c.056.211.1.412.149.619a34.537,34.537,0,0,0,7.424-15.38,21.5,21.5,0,0,1-6.736,2.034A28.536,28.536,0,0,1,74,265.6Z" style="fill: #ee2e65"/>
    <path d="M47.689,221.457c.763-.061,1.532-.1,2.311-.1.84,0,1.669.044,2.49.115a21.6,21.6,0,0,1,5.755-3.273,12.359,12.359,0,0,0,2-1.293,34.595,34.595,0,0,0-17.684-.737A26.726,26.726,0,0,1,47.689,221.457Z" style="fill: #ee2e65"/>
    <path d="M73.106,233.1a28.72,28.72,0,0,1,1.9,2.963,23.678,23.678,0,0,1,6.745.11A34.8,34.8,0,0,0,73.087,224.2,37.921,37.921,0,0,1,73.106,233.1Z" style="fill: #ee2e65"/>
  </g>
  <path d="M76.3,255.969c-9.136.511-14.577-1.028-16.258-2.049,6.345,5.1,11.594,11.441,13.447,18.469s.275,11.346.275,11.346-10.05-4.255-13.947-7.385-6.69-4.616-10.968-15.052c-.38,9.566-2.689,15.2-7.481,21.139-3.061,3.8-11.308,7.858-11.308,7.858s-3.9-8.655-2.4-15.238c1.533-6.708,5.879-9.71,10.182-18.4-4.336,4.507-9.876,6.524-14.974,7.478-3.276.613-8.46-1.443-18.017-2.4,3.367-7.346,5.942-13.321,13.608-16.292,3.339-1.294,12.436-2,16.27-1.5-15.406-8.4-14.59-18.055-14.432-24s3.7-13.276,3.7-13.276,6.106,5.785,12.051,8.86S47.361,223.7,49,231.72c1.428-5.335,5.782-9.023,10.426-10.763,2.539-1.2,7.283-4.92,7.795-9.456,0,0,7.092,20.189-.057,28.911,9.44-2.046,13.6-1.821,15.838-.735s7.842,5.416,13.144,4.393C96.149,244.07,85.433,255.457,76.3,255.969Zm-21.778-8.062a3.657,3.657,0,0,0-.257-.561A3.727,3.727,0,0,0,54.1,247a4.244,4.244,0,0,0-.411-.5c-.088-.1-.155-.213-.254-.307a4.9,4.9,0,0,0-.433-.325,4.728,4.728,0,0,0-.466-.348,5.519,5.519,0,0,0-1.375-.574,5.992,5.992,0,0,0-1.513-.2l-.129,0a6.082,6.082,0,0,0-1.387.182,5.509,5.509,0,0,0-.7.269,5.592,5.592,0,0,0-.543.208,4.851,4.851,0,0,0-.592.42,4.786,4.786,0,0,0-.448.319,4.278,4.278,0,0,0-.366.458,4.123,4.123,0,0,0-.409.513,3.44,3.44,0,0,0-.5,1.761,3.509,3.509,0,0,0,.7,2.063l0,0a4.933,4.933,0,0,0,2.651,1.741,5.379,5.379,0,0,0,.636.235,6.343,6.343,0,0,0,1.056.092,5.089,5.089,0,0,0,4.732-2.757l0-.009a2.579,2.579,0,0,0,.156-.416,3.169,3.169,0,0,0,.011-1.926Z" style="fill: #ee2e65;fill-rule: evenodd"/>
  <circle cx="49.667" cy="150" r="17.242" style="fill: #ee2e65;opacity: 0.3"/>
</svg>
