<?xml version="1.0" encoding="utf-8"?>
<svg version="1.1" xmlns="http://www.w3.org/2000/svg" xmlns:xlink="http://www.w3.org/1999/xlink" x="0px" y="0px" viewBox="0 0 876.3 188.7" style="enable-background:new 0 0 876.3 188.7;" xml:space="preserve">
	<!--
		This file was provided as part of a weekly web design tutorial series.
		Sign-up for our newsletter, at http://codifydesign.com, to be notified
		about new episodes.
	-->
	<style type="text/css">
		.st0{fill:#F5F0A1;} .st1{fill:#FFDA00;} .st2{fill:#9BE7D8;}
		.st3{fill:#72D0EB;} .st4{fill:#FFAFBB;} .st5{fill:#F5B2DB;}
		.st6{fill:#FFDD00;} .st7{fill:#3CD52E;} .st8{fill:#C39BDE;}
		.st9{fill:#0098CE;} .st10{fill:#FFE900;} .st11{fill:#9A7BB7;}
	</style>
	<path class="st0" d="M103.8, 128.5L103.8, 128.5c-0.7-0.7-0.7-1.8, 0-2.5l13.6-13.6c0.7-0.7, 1.8-0.7, 2.5, 0h0c0.7, 0.7, 0.7, 1.8, 0, 2.5 l-13.6, 13.6C105.7, 129.2, 104.5, 129.2, 103.8, 128.5z"/>
	<path class="st1" d="M65.6, 91L65.6, 91c-0.7-0.7-0.7-1.8, 0-2.5l13.6-13.6c0.7-0.7, 1.8-0.7, 2.5, 0h0c0.7, 0.7, 0.7, 1.8, 0, 2.5L68.1, 91 C67.4, 91.7, 66.3, 91.7, 65.6, 91z"/>
	<path class="st2" d="M387.9, 94.6L387.9, 94.6c-0.7-0.7-0.7-1.8, 0-2.5l13.6-13.6c0.7-0.7, 1.8-0.7, 2.5, 0l0, 0c0.7, 0.7, 0.7, 1.8, 0, 2.5 l-13.6, 13.6C389.8, 95.3, 388.6, 95.3, 387.9, 94.6z"/>
	<path class="st3" d="M475.6, 132.1L475.6, 132.1c-0.7-0.7-0.7-1.8, 0-2.5l13.6-13.6c0.7-0.7, 1.8-0.7, 2.5, 0l0, 0c0.7, 0.7, 0.7, 1.8, 0, 2.5 l-13.6, 13.6C477.5, 132.8, 476.3, 132.8, 475.6, 132.1z"/>
	<path class="st3" d="M349.7, 57.1L349.7, 57.1c-0.7-0.7-0.7-1.8, 0-2.5L363.3, 41c0.7-0.7, 1.8-0.7, 2.5, 0v0c0.7, 0.7, 0.7, 1.8, 0, 2.5 l-13.6, 13.6C351.6, 57.8, 350.4, 57.8, 349.7, 57.1z"/>
	<path class="st4" d="M179.9, 100.9L179.9, 100.9c-0.7-0.7-0.7-1.8, 0-2.5l13.6-13.6c0.7-0.7, 1.8-0.7, 2.5, 0v0c0.7, 0.7, 0.7, 1.8, 0, 2.5 l-13.6, 13.6C181.7, 101.6, 180.6, 101.6, 179.9, 100.9z"/>
	<path class="st2" d="M153.9, 62.7L153.9, 62.7c-0.7-0.7-0.7-1.8, 0-2.5l13.6-13.6c0.7-0.7, 1.8-0.7, 2.5, 0v0c0.7, 0.7, 0.7, 1.8, 0, 2.5 l-13.6, 13.6C155.7, 63.4, 154.6, 63.4, 153.9, 62.7z"/>
	<path class="st5" d="M58.9, 60.3L58.9, 60.3c-0.7-0.7-0.7-1.8, 0-2.5l13.6-13.6c0.7-0.7, 1.8-0.7, 2.5, 0v0c0.7, 0.7, 0.7, 1.8, 0, 2.5 L61.4, 60.3C60.7, 61, 59.6, 61, 58.9, 60.3z"/>
	<path class="st5" d="M33.7, 136.3L33.7, 136.3c-0.7-0.7-0.7-1.8, 0-2.5l13.6-13.6c0.7-0.7, 1.8-0.7, 2.5, 0l0, 0c0.7, 0.7, 0.7, 1.8, 0, 2.5 l-13.6, 13.6C35.5, 137, 34.4, 137, 33.7, 136.3z"/>
	<path class="st6" d="M231.8, 160.4L231.8, 160.4c-0.7, 0.7-1.8, 0.7-2.5, 0l-13.6-13.6c-0.7-0.7-0.7-1.8, 0-2.5l0, 0 c0.7-0.7, 1.8-0.7, 2.5, 0l13.6, 13.6C232.6, 158.5, 232.6, 159.7, 231.8, 160.4z"/>
	<path class="st7" d="M318.9, 74.1L318.9, 74.1c-0.7, 0.7-1.8, 0.7-2.5, 0l-13.6-13.6c-0.7-0.7-0.7-1.8, 0-2.5v0c0.7-0.7, 1.8-0.7, 2.5, 0 l13.6, 13.6C319.6, 72.2, 319.6, 73.4, 318.9, 74.1z"/>
	<path class="st3" d="M317, 133.6L317, 133.6c-0.7, 0.7-1.8, 0.7-2.5, 0L300.9, 120c-0.7-0.7-0.7-1.8, 0-2.5v0c0.7-0.7, 1.8-0.7, 2.5, 0 L317, 131C317.7, 131.7, 317.7, 132.9, 317, 133.6z"/>
	<path class="st8" d="M242.9, 57.5L242.9, 57.5c-0.7, 0.7-1.8, 0.7-2.5, 0L226.8, 44c-0.7-0.7-0.7-1.8, 0-2.5v0c0.7-0.7, 1.8-0.7, 2.5, 0 L242.9, 55C243.6, 55.7, 243.6, 56.8, 242.9, 57.5z"/>
	<path class="st9" d="M142, 85.9L142, 85.9c-0.7, 0.7-1.8, 0.7-2.5, 0l-13.6-13.6c-0.7-0.7-0.7-1.8, 0-2.5l0, 0c0.7-0.7, 1.8-0.7, 2.5, 0 L142, 83.4C142.7, 84.1, 142.7, 85.2, 142, 85.9z"/>
	<path class="st9" d="M260.2, 105.6L260.2, 105.6c-0.7, 0.7-1.8, 0.7-2.5, 0L244.1, 92c-0.7-0.7-0.7-1.8, 0-2.5h0c0.7-0.7, 1.8-0.7, 2.5, 0 l13.6, 13.6C260.9, 103.8, 260.9, 104.9, 260.2, 105.6z"/>
	<path class="st2" d="M43.9, 85.1L43.9, 85.1c-0.7, 0.7-1.8, 0.7-2.5, 0L27.8, 71.6c-0.7-0.7-0.7-1.8, 0-2.5l0, 0c0.7-0.7, 1.8-0.7, 2.5, 0 l13.6, 13.6C44.6, 83.3, 44.6, 84.4, 43.9, 85.1z"/>
	<path class="st6" d="M62, 176.2L62, 176.2c-0.7, 0.7-1.8, 0.7-2.5, 0l-13.6-13.6c-0.7-0.7-0.7-1.8, 0-2.5l0, 0c0.7-0.7, 1.8-0.7, 2.5, 0 L62, 173.6C62.7, 174.3, 62.7, 175.4, 62, 176.2z"/>
	<path class="st7" d="M161.7, 156.8L161.7, 156.8c-0.7, 0.7-1.8, 0.7-2.5, 0l-13.6-13.6c-0.7-0.7-0.7-1.8, 0-2.5v0c0.7-0.7, 1.8-0.7, 2.5, 0 l13.6, 13.6C162.4, 155, 162.4, 156.1, 161.7, 156.8z"/>
	<path class="st10" d="M412.7, 57.9L412.7, 57.9c-0.7, 0.7-1.8, 0.7-2.5, 0l-13.6-13.6c-0.7-0.7-0.7-1.8, 0-2.5l0, 0c0.7-0.7, 1.8-0.7, 2.5, 0 l13.6, 13.6C413.4, 56.1, 413.4, 57.2, 412.7, 57.9z"/>
	<path class="st11" d="M426.7, 111.9L426.7, 111.9c0.8-0.5, 2-0.3, 2.5, 0.6l10.1, 16.3c0.5, 0.8, 0.3, 2-0.6, 2.5l0, 0c-0.8, 0.5-2, 0.3-2.5-0.6 l-10.1-16.3C425.6, 113.5, 425.8, 112.4, 426.7, 111.9z"/>
	<path class="st7" d="M382.9, 148.2L382.9, 148.2c0.8-0.5, 2-0.3, 2.5, 0.6l10.1, 16.3c0.5, 0.8, 0.3, 2-0.6, 2.5l0, 0c-0.8, 0.5-2, 0.3-2.5-0.6 l-10.1-16.3C381.8, 149.8, 382.1, 148.7, 382.9, 148.2z"/>
	<path class="st4" d="M372.7, 110.3L372.7, 110.3c0.8-0.5, 2-0.3, 2.5, 0.6l10.1, 16.3c0.5, 0.8, 0.3, 2-0.6, 2.5l0, 0c-0.8, 0.5-2, 0.3-2.5-0.6 l-10.1-16.3C371.6, 112, 371.8, 110.8, 372.7, 110.3z"/>
	<path class="st0" d="M516.8, 131.3L516.8, 131.3c-0.7-0.7-0.7-1.8, 0-2.5l13.6-13.6c0.7-0.7, 1.8-0.7, 2.5, 0v0c0.7, 0.7, 0.7, 1.8, 0, 2.5 l-13.6, 13.6C518.7, 132, 517.5, 132, 516.8, 131.3z"/>
	<path class="st1" d="M478.6, 93.8L478.6, 93.8c-0.7-0.7-0.7-1.8, 0-2.5l13.6-13.6c0.7-0.7, 1.8-0.7, 2.5, 0v0c0.7, 0.7, 0.7, 1.8, 0, 2.5 l-13.6, 13.6C480.4, 94.5, 479.3, 94.5, 478.6, 93.8z"/>
	<path class="st2" d="M800.9, 97.4L800.9, 97.4c-0.7-0.7-0.7-1.8, 0-2.5l13.6-13.6c0.7-0.7, 1.8-0.7, 2.5, 0v0c0.7, 0.7, 0.7, 1.8, 0, 2.5 l-13.6, 13.6C802.8, 98.1, 801.6, 98.1, 800.9, 97.4z"/>
	<path class="st3" d="M853.4, 74.5L853.4, 74.5c-0.7-0.7-0.7-1.8, 0-2.5l13.6-13.6c0.7-0.7, 1.8-0.7, 2.5, 0v0c0.7, 0.7, 0.7, 1.8, 0, 2.5 l-13.6, 13.6C855.2, 75.2, 854.1, 75.2, 853.4, 74.5z"/>
	<path class="st3" d="M762.7, 60L762.7, 60c-0.7-0.7-0.7-1.8, 0-2.5l13.6-13.6c0.7-0.7, 1.8-0.7, 2.5, 0v0c0.7, 0.7, 0.7, 1.8, 0, 2.5L765.3, 60 C764.6, 60.7, 763.4, 60.7, 762.7, 60z"/>
	<path class="st4" d="M592.9, 103.7L592.9, 103.7c-0.7-0.7-0.7-1.8, 0-2.5l13.6-13.6c0.7-0.7, 1.8-0.7, 2.5, 0l0, 0c0.7, 0.7, 0.7, 1.8, 0, 2.5 l-13.6, 13.6C594.7, 104.4, 593.6, 104.4, 592.9, 103.7z"/>
	<path class="st2" d="M566.9, 65.5L566.9, 65.5c-0.7-0.7-0.7-1.8, 0-2.5l13.6-13.6c0.7-0.7, 1.8-0.7, 2.5, 0l0, 0c0.7, 0.7, 0.7, 1.8, 0, 2.5 l-13.6, 13.6C568.7, 66.2, 567.6, 66.2, 566.9, 65.5z"/>
	<path class="st5" d="M471.9, 63.1L471.9, 63.1c-0.7-0.7-0.7-1.8, 0-2.5L485.5, 47c0.7-0.7, 1.8-0.7, 2.5, 0v0c0.7, 0.7, 0.7, 1.8, 0, 2.5 l-13.6, 13.6C473.7, 63.8, 472.6, 63.8, 471.9, 63.1z"/>
	<path class="st5" d="M271.3, 161.8L271.3, 161.8c-0.7-0.7-0.7-1.8, 0-2.5l13.6-13.6c0.7-0.7, 1.8-0.7, 2.5, 0l0, 0c0.7, 0.7, 0.7, 1.8, 0, 2.5 l-13.6, 13.6C273.2, 162.5, 272, 162.5, 271.3, 161.8z"/>
	<path class="st6" d="M644.8, 163.2L644.8, 163.2c-0.7, 0.7-1.8, 0.7-2.5, 0l-13.6-13.6c-0.7-0.7-0.7-1.8, 0-2.5l0, 0 c0.7-0.7, 1.8-0.7, 2.5, 0l13.6, 13.6C645.5, 161.4, 645.5, 162.5, 644.8, 163.2z"/>
	<path class="st7" d="M731.9, 76.9L731.9, 76.9c-0.7, 0.7-1.8, 0.7-2.5, 0l-13.6-13.6c-0.7-0.7-0.7-1.8, 0-2.5l0, 0c0.7-0.7, 1.8-0.7, 2.5, 0 l13.6, 13.6C732.6, 75.1, 732.6, 76.2, 731.9, 76.9z"/>
	<path class="st3" d="M730, 136.4L730, 136.4c-0.7, 0.7-1.8, 0.7-2.5, 0l-13.6-13.6c-0.7-0.7-0.7-1.8, 0-2.5l0, 0c0.7-0.7, 1.8-0.7, 2.5, 0 l13.6, 13.6C730.7, 134.6, 730.7, 135.7, 730, 136.4z"/>
	<path class="st8" d="M655.9, 60.3L655.9, 60.3c-0.7, 0.7-1.8, 0.7-2.5, 0l-13.6-13.6c-0.7-0.7-0.7-1.8, 0-2.5v0c0.7-0.7, 1.8-0.7, 2.5, 0 l13.6, 13.6C656.6, 58.5, 656.6, 59.6, 655.9, 60.3z"/>
	<path class="st9" d="M555, 88.7L555, 88.7c-0.7, 0.7-1.8, 0.7-2.5, 0l-13.6-13.6c-0.7-0.7-0.7-1.8, 0-2.5h0c0.7-0.7, 1.8-0.7, 2.5, 0 L555, 86.2C555.7, 86.9, 555.7, 88, 555, 88.7z"/>
	<path class="st9" d="M673.2, 108.4L673.2, 108.4c-0.7, 0.7-1.8, 0.7-2.5, 0l-13.6-13.6c-0.7-0.7-0.7-1.8, 0-2.5v0c0.7-0.7, 1.8-0.7, 2.5, 0 l13.6, 13.6C673.9, 106.6, 673.9, 107.7, 673.2, 108.4z"/>
	<path class="st2" d="M339.5, 109.3L339.5, 109.3c-0.7, 0.7-1.8, 0.7-2.5, 0l-13.6-13.6c-0.7-0.7-0.7-1.8, 0-2.5v0c0.7-0.7, 1.8-0.7, 2.5, 0 l13.6, 13.6C340.2, 107.4, 340.2, 108.6, 339.5, 109.3z"/>
	<path class="st6" d="M475, 179L475, 179c-0.7, 0.7-1.8, 0.7-2.5, 0l-13.6-13.6c-0.7-0.7-0.7-1.8, 0-2.5l0, 0c0.7-0.7, 1.8-0.7, 2.5, 0 l13.6, 13.6C475.7, 177.1, 475.7, 178.3, 475, 179z"/>
	<path class="st7" d="M574.7, 159.7L574.7, 159.7c-0.7, 0.7-1.8, 0.7-2.5, 0l-13.6-13.6c-0.7-0.7-0.7-1.8, 0-2.5l0, 0 c0.7-0.7, 1.8-0.7, 2.5, 0l13.6, 13.6C575.4, 157.8, 575.4, 159, 574.7, 159.7z"/>
	<path class="st10" d="M825.7, 60.7L825.7, 60.7c-0.7, 0.7-1.8, 0.7-2.5, 0l-13.6-13.6c-0.7-0.7-0.7-1.8, 0-2.5v0c0.7-0.7, 1.8-0.7, 2.5, 0 l13.6, 13.6C826.4, 58.9, 826.4, 60, 825.7, 60.7z"/>
	<path class="st11" d="M839.7, 114.7L839.7, 114.7c0.8-0.5, 2-0.3, 2.5, 0.6l10.1, 16.3c0.5, 0.8, 0.3, 2-0.6, 2.5l0, 0c-0.8, 0.5-2, 0.3-2.5-0.6 l-10.1-16.3C838.5, 116.4, 838.8, 115.2, 839.7, 114.7z"/>
	<path class="st7" d="M795.9, 151L795.9, 151c0.8-0.5, 2-0.3, 2.5, 0.6l10.1, 16.3c0.5, 0.8, 0.3, 2-0.6, 2.5l0, 0c-0.8, 0.5-2, 0.3-2.5-0.6 l-10.1-16.3C794.8, 152.6, 795.1, 151.5, 795.9, 151z"/>
	<path class="st6" d="M206.5, 28.4L206.5, 28.4c-0.7, 0.7-1.8, 0.7-2.5, 0l-13.6-13.6c-0.7-0.7-0.7-1.8, 0-2.5v0c0.7-0.7, 1.8-0.7, 2.5, 0 l13.6, 13.6C207.2, 26.5, 207.2, 27.7, 206.5, 28.4z"/>
	<path class="st6" d="M36.7, 44.2L36.7, 44.2c-0.7, 0.7-1.8, 0.7-2.5, 0L20.6, 30.6c-0.7-0.7-0.7-1.8, 0-2.5l0, 0c0.7-0.7, 1.8-0.7, 2.5, 0 l13.6, 13.6C37.4, 42.3, 37.4, 43.4, 36.7, 44.2z"/>
	<path class="st7" d="M136.4, 24.8L136.4, 24.8c-0.7, 0.7-1.8, 0.7-2.5, 0l-13.6-13.6c-0.7-0.7-0.7-1.8, 0-2.5v0c0.7-0.7, 1.8-0.7, 2.5, 0 l13.6, 13.6C137.1, 23, 137.1, 24.1, 136.4, 24.8z"/>
	<path class="st0" d="M314.3, 22.2L314.3, 22.2c0.8-0.5, 2-0.3, 2.5, 0.6l10.1, 16.3c0.5, 0.8, 0.3, 2-0.6, 2.5v0c-0.8, 0.5-2, 0.3-2.5-0.6 l-10.1-16.3C313.1, 23.8, 313.4, 22.7, 314.3, 22.2z"/>
	<path class="st0" d="M680.3, 28.2L680.3, 28.2c0.8-0.5, 2-0.3, 2.5, 0.6l10.1, 16.3c0.5, 0.8, 0.3, 2-0.6, 2.5v0c-0.8, 0.5-2, 0.3-2.5-0.6 l-10.1-16.3C679.1, 29.8, 679.4, 28.7, 680.3, 28.2z"/>
	<path class="st5" d="M246, 29.8L246, 29.8c-0.7-0.7-0.7-1.8, 0-2.5l13.6-13.6c0.7-0.7, 1.8-0.7, 2.5, 0v0c0.7, 0.7, 0.7, 1.8, 0, 2.5 l-13.6, 13.6C247.8, 30.5, 246.7, 30.5, 246, 29.8z"/>
	<path class="st6" d="M619.5, 31.2L619.5, 31.2c-0.7, 0.7-1.8, 0.7-2.5, 0l-13.6-13.6c-0.7-0.7-0.7-1.8, 0-2.5v0c0.7-0.7, 1.8-0.7, 2.5, 0 l13.6, 13.6C620.2, 29.4, 620.2, 30.5, 619.5, 31.2z"/>
	<path class="st6" d="M449.7, 47L449.7, 47c-0.7, 0.7-1.8, 0.7-2.5, 0l-13.6-13.6c-0.7-0.7-0.7-1.8, 0-2.5l0, 0c0.7-0.7, 1.8-0.7, 2.5, 0 l13.6, 13.6C450.4, 45.1, 450.4, 46.3, 449.7, 47z"/>
	<path class="st7" d="M549.4, 27.7L549.4, 27.7c-0.7, 0.7-1.8, 0.7-2.5, 0l-13.6-13.6c-0.7-0.7-0.7-1.8, 0-2.5v0c0.7-0.7, 1.8-0.7, 2.5, 0 l13.6, 13.6C550.1, 25.8, 550.1, 27, 549.4, 27.7z"/>
	<path class="st7" d="M770.6, 19L770.6, 19c0.8-0.5, 2-0.3, 2.5, 0.6l10.1, 16.3c0.5, 0.8, 0.3, 2-0.6, 2.5l0, 0c-0.8, 0.5-2, 0.3-2.5-0.6 L770, 21.4C769.5, 20.6, 769.7, 19.5, 770.6, 19z"/>
	<path class="st4" d="M785.7, 113.1L785.7, 113.1c0.8-0.5, 2-0.3, 2.5, 0.6l10.1, 16.3c0.5, 0.8, 0.3, 2-0.6, 2.5v0c-0.8, 0.5-2, 0.3-2.5-0.6 l-10.1-16.3C784.6, 114.8, 784.8, 113.7, 785.7, 113.1z"/>
</svg>
