<svg id="Layer_1" data-name="Layer 1" xmlns="http://www.w3.org/2000/svg" viewBox="0 0 100 100">
  <title>file_pdf</title>
  <path d="M97.291,32.732a2.993,2.993,0,0,0-.05-.516c0-.025-.013-.048-.019-.072a3,3,0,0,0-.125-.423c-.019-.05-.04-.1-.062-.148a2.975,2.975,0,0,0-.172-.333c-.026-.044-.051-.089-.08-.132a2.989,2.989,0,0,0-.324-.41L69.835,2.948a2.982,2.982,0,0,0-.418-.355c-.041-.03-.084-.056-.127-.083a2.981,2.981,0,0,0-.36-.2c-.045-.021-.088-.043-.134-.062a3,3,0,0,0-.51-.159c-.023,0-.047-.006-.071-.01a2.99,2.99,0,0,0-.47-.048c-.025,0-.05-.008-.075-.008H30.4a3,3,0,0,0-3,3v88.85a3,3,0,0,0,3,3h63.9a3,3,0,0,0,3-3v-61.1C97.295,32.76,97.291,32.746,97.291,32.732ZM87.259,29.775H70.67V12.485l8.923,9.3ZM33.4,90.875V8.025H64.67v24.75a3,3,0,0,0,3,3H91.295v55.1Z" style="fill: #fff"/>
  <rect x="2.245" y="48.44" width="75.23" height="34.35" rx="6" ry="6" style="fill: #ed1c24"/>
  <g>
    <path d="M14.055,56.511a32.058,32.058,0,0,1,5.64-.42c2.7,0,4.68.57,5.97,1.65a5.71,5.71,0,0,1,1.98,4.47A6.126,6.126,0,0,1,25.9,66.8a8.922,8.922,0,0,1-6.39,2.16,10.417,10.417,0,0,1-1.8-.12V76.46h-3.66Zm3.66,9.42a7.44,7.44,0,0,0,1.8.15c2.76,0,4.439-1.351,4.439-3.721,0-2.249-1.56-3.449-4.11-3.449a10.216,10.216,0,0,0-2.13.18Z" style="fill: #fff"/>
    <path d="M33.225,56.511a37.309,37.309,0,0,1,5.88-.42c3.78,0,6.39.78,8.25,2.34,1.95,1.59,3.15,3.99,3.15,7.44a10.466,10.466,0,0,1-3.15,8.039c-2.01,1.83-5.22,2.76-9.149,2.76a40.43,40.43,0,0,1-4.98-.27Zm3.69,17.13a13.769,13.769,0,0,0,2.04.09c4.8.03,7.649-2.61,7.649-7.74.03-4.47-2.55-7.02-7.169-7.02a11.8,11.8,0,0,0-2.52.21Z" style="fill: #fff"/>
    <path d="M56.115,56.241H67.784v3.029H59.8v5.58h7.439v3.03H59.8V76.46H56.115Z" style="fill: #fff"/>
  </g>
</svg>
