<svg id="Layer_1" data-name="Layer 1" xmlns="http://www.w3.org/2000/svg" viewBox="0 0 100 100">
  <title>file_xls</title>
  <path d="M97.291,32.732a2.993,2.993,0,0,0-.05-.516c0-.025-.013-.048-.019-.072a3,3,0,0,0-.125-.423c-.019-.05-.04-.1-.062-.148a2.975,2.975,0,0,0-.172-.333c-.026-.044-.051-.089-.08-.132a2.989,2.989,0,0,0-.324-.41L69.835,2.948a2.98,2.98,0,0,0-.418-.355c-.042-.03-.085-.056-.128-.084a2.981,2.981,0,0,0-.358-.2c-.045-.021-.089-.044-.136-.063a3.008,3.008,0,0,0-.509-.159c-.024-.005-.049-.006-.073-.01a3,3,0,0,0-.469-.048c-.025,0-.05-.008-.075-.008H30.395a3,3,0,0,0-3,3v88.85a3,3,0,0,0,3,3H94.3a3,3,0,0,0,3-3v-61.1C97.3,32.76,97.291,32.746,97.291,32.732ZM87.259,29.775H70.67V12.485l8.923,9.3Zm-53.864,61.1V8.025H64.67v24.75a3,3,0,0,0,3,3H91.3v55.1Z" style="fill: #fff"/>
  <rect x="2.245" y="48.44" width="75.23" height="34.35" rx="6" ry="6" style="fill: #0c8040"/>
  <g>
    <path d="M27.567,76.46l-2.19-4.02c-.87-1.56-1.439-2.64-2.01-3.81h-.09c-.48,1.17-1.02,2.25-1.83,3.81l-2.01,4.02H15.207l6-10.229-5.76-9.989h4.23l2.189,4.17c.66,1.26,1.141,2.25,1.68,3.39h.061c.54-1.26.96-2.16,1.59-3.39l2.16-4.17h4.229l-5.91,9.869,6.15,10.35Z" style="fill: #fff"/>
    <path d="M36.956,56.241h3.69V73.37h8.31v3.09h-12Z" style="fill: #fff"/>
    <path d="M54.057,72.44a10.22,10.22,0,0,0,4.89,1.29c2.37,0,3.689-1.11,3.689-2.76,0-1.53-1.02-2.431-3.6-3.36-3.33-1.2-5.46-2.97-5.46-5.88,0-3.3,2.76-5.819,7.14-5.819a10.683,10.683,0,0,1,4.86,1.02l-.9,2.97a8.563,8.563,0,0,0-4.02-.96c-2.34,0-3.36,1.261-3.36,2.431,0,1.56,1.17,2.279,3.87,3.329,3.51,1.32,5.22,3.091,5.22,6,0,3.24-2.46,6.06-7.68,6.06a12.01,12.01,0,0,1-5.46-1.26Z" style="fill: #fff"/>
  </g>
</svg>
