<svg id="Layer_1" data-name="Layer 1" xmlns="http://www.w3.org/2000/svg" viewBox="0 0 163.333 98.667">
  <title>title</title>
  <path d="M80.834,44.735V3.5a1.5,1.5,0,0,0-3,0V44.735c.5-.026,1-.041,1.5-.041S80.337,44.709,80.834,44.735Z" style="fill: #fff"/>
  <path d="M99.339,28.079a1.5,1.5,0,0,0-2.772-1.148L88.555,46.267a27.513,27.513,0,0,1,2.774,1.142Z" style="fill: #fff"/>
  <path d="M51.573,70.943H10.39a1.5,1.5,0,0,0,0,3H51.564q-.036-.717-.037-1.443C51.527,71.977,51.545,71.459,51.573,70.943Z" style="fill: #fff"/>
  <path d="M148.277,70.943H107.094c.028.516.045,1.034.045,1.557q0,.726-.037,1.443h41.175a1.5,1.5,0,0,0,0-3Z" style="fill: #fff"/>
  <path d="M34.952,52.477a1.5,1.5,0,0,0-1.147,2.773l19.311,7.981a27.623,27.623,0,0,1,1.147-2.773Z" style="fill: #fff"/>
  <path d="M124.844,55.2a1.5,1.5,0,1,0-1.148-2.771l-19.3,8a27.826,27.826,0,0,1,1.15,2.77Z" style="fill: #fff"/>
  <path d="M100,53.9l29.146-29.146a1.5,1.5,0,1,0-2.121-2.121l-29.15,29.15A27.925,27.925,0,0,1,100,53.9Z" style="fill: #fff"/>
  <path d="M60.793,51.782l-29.15-29.15a1.5,1.5,0,0,0-2.121,2.121L58.668,53.9A28.3,28.3,0,0,1,60.793,51.782Z" style="fill: #fff"/>
  <path d="M62.111,26.926a1.5,1.5,0,1,0-2.771,1.148l8,19.332a27.748,27.748,0,0,1,2.774-1.142Z" style="fill: #fff"/>
  <path d="M102.332,72.342a22.849,22.849,0,1,0-45.7,0c0,.559.044,1.108.084,1.658h45.53C102.288,73.45,102.332,72.9,102.332,72.342Z" style="fill: #fff"/>
  <g>
    <path d="M18.513,89.758a2.274,2.274,0,0,1-.889,1.91,3.854,3.854,0,0,1-2.412.686,6.032,6.032,0,0,1-2.539-.426V90.887a6.678,6.678,0,0,0,1.244.381,6.482,6.482,0,0,0,1.333.141A2.688,2.688,0,0,0,16.875,91a1.344,1.344,0,0,0,.546-1.139,1.473,1.473,0,0,0-.193-.791,1.8,1.8,0,0,0-.648-.569,9.146,9.146,0,0,0-1.381-.589,4.408,4.408,0,0,1-1.85-1.1,2.429,2.429,0,0,1-.556-1.657,2.062,2.062,0,0,1,.807-1.708,3.349,3.349,0,0,1,2.132-.635,6.286,6.286,0,0,1,2.545.508l-.336.939a5.756,5.756,0,0,0-2.234-.482,2.162,2.162,0,0,0-1.34.369,1.213,1.213,0,0,0-.482,1.021,1.569,1.569,0,0,0,.177.79,1.7,1.7,0,0,0,.6.566,7.516,7.516,0,0,0,1.292.568,5.113,5.113,0,0,1,2.009,1.117A2.2,2.2,0,0,1,18.513,89.758Z" style="fill: #fff"/>
    <path d="M37.558,82.947v6a3.274,3.274,0,0,1-.958,2.494,3.676,3.676,0,0,1-2.634.908,3.517,3.517,0,0,1-2.594-.914,3.391,3.391,0,0,1-.917-2.514V82.947h1.079V89a2.385,2.385,0,0,0,.635,1.784,2.56,2.56,0,0,0,1.866.623,2.473,2.473,0,0,0,1.81-.626,2.406,2.406,0,0,0,.634-1.793V82.947Z" style="fill: #fff"/>
    <path d="M57.4,92.227H56.172L51.1,84.438H51.05q.1,1.371.1,2.514v5.275h-1v-9.28h1.219l5.06,7.757h.05q-.012-.172-.057-1.1c-.03-.62-.04-1.062-.031-1.33V82.947H57.4Z" style="fill: #fff"/>
    <path d="M70.1,92.227v-9.28h1.08v8.3h4.094v.977Z" style="fill: #fff"/>
    <path d="M86.982,92.227v-9.28h1.08v9.28Z" style="fill: #fff"/>
    <path d="M104.83,87.365h3.154v4.512a9.887,9.887,0,0,1-1.5.356,11.3,11.3,0,0,1-1.763.121A4.279,4.279,0,0,1,101.44,91.1a4.941,4.941,0,0,1-1.174-3.514,5.31,5.31,0,0,1,.581-2.535,3.931,3.931,0,0,1,1.673-1.663,5.414,5.414,0,0,1,2.558-.575,7,7,0,0,1,2.768.547l-.42.951a6.191,6.191,0,0,0-2.418-.533,3.463,3.463,0,0,0-2.647,1.01,3.917,3.917,0,0,0-.953,2.8,4.006,4.006,0,0,0,.918,2.851,3.536,3.536,0,0,0,2.7.972,8.014,8.014,0,0,0,1.885-.223V88.33H104.83Z" style="fill: #fff"/>
    <path d="M127.4,92.227h-1.08V87.86h-4.886v4.367h-1.08v-9.28h1.08V86.9h4.886V82.947h1.08Z" style="fill: #fff"/>
    <path d="M142.942,92.227h-1.08V83.905h-2.938v-.958h6.957v.958h-2.939Z" style="fill: #fff"/>
  </g>
</svg>
