<svg xmlns="http://www.w3.org/2000/svg" xmlns:xlink="http://www.w3.org/1999/xlink" viewBox="0 0 500 365">
	<title>top_ice_cream</title>

	<defs>
		<clipPath id="clip-path">
			<polygon points="258.014 360.5 223.981 280.5 292.856 280.5 258.014 360.5 258.014 360.5" style="fill: #a67c52"/>
		</clipPath>
	</defs>

	<g id="bottom_layer">
		<rect x="-0.138" y="-0.5" width="500" height="365" style="fill: #fcdd5b"/>
		<polyline points="316.641 57.5 479.111 57.5 479.111 316.5 20.611 316.5 20.611 57.5 185.525 57.5" style="fill: #fff"/>
		<polyline points="316.641 57.5 479.111 57.5 479.111 316.5 20.611 316.5 20.611 57.5 185.525 57.5" style="fill: none;stroke: #ff4d6f;stroke-linecap: round;stroke-miterlimit: 10;stroke-width: 6.71454621522003px"/>
		<polygon points="258.014 360.5 223.981 280.5 292.856 280.5 258.014 360.5 258.014 360.5" style="fill: #a67c52"/>
		<g style="clip-path: url(#clip-path)">
			<polygon points="154.88 332.502 272.338 235.46 361.147 308.833 243.689 405.875 154.88 332.502" style="fill: #a67c52;stroke: #512416;stroke-miterlimit: 10;stroke-width: 2.29848964226972px"/>
			<line x1="235.616" y1="399.205" x2="353.074" y2="302.163" style="fill: #a67c52;stroke: #512416;stroke-miterlimit: 10;stroke-width: 2.29848964226972px"/>
			<line x1="227.542" y1="392.535" x2="345" y2="295.492" style="fill: #a67c52;stroke: #512416;stroke-miterlimit: 10;stroke-width: 2.29848964226972px"/>
			<line x1="219.469" y1="385.864" x2="336.927" y2="288.822" style="fill: #a67c52;stroke: #512416;stroke-miterlimit: 10;stroke-width: 2.29848964226972px"/>
			<line x1="211.395" y1="379.194" x2="328.853" y2="282.152" style="fill: #a67c52;stroke: #512416;stroke-miterlimit: 10;stroke-width: 2.29848964226972px"/>
			<line x1="203.321" y1="372.524" x2="320.779" y2="275.481" style="fill: #a67c52;stroke: #512416;stroke-miterlimit: 10;stroke-width: 2.29848964226972px"/>
			<line x1="195.248" y1="365.853" x2="312.706" y2="268.811" style="fill: #a67c52;stroke: #512416;stroke-miterlimit: 10;stroke-width: 2.29848964226972px"/>
			<line x1="187.174" y1="359.183" x2="304.632" y2="262.141" style="fill: #a67c52;stroke: #512416;stroke-miterlimit: 10;stroke-width: 2.29848964226972px"/>
			<line x1="179.101" y1="352.513" x2="296.558" y2="255.47" style="fill: #a67c52;stroke: #512416;stroke-miterlimit: 10;stroke-width: 2.29848964226972px"/>
			<line x1="171.027" y1="345.842" x2="288.485" y2="248.8" style="fill: #a67c52;stroke: #512416;stroke-miterlimit: 10;stroke-width: 2.29848964226972px"/>
			<line x1="162.953" y1="339.172" x2="280.411" y2="242.13" style="fill: #a67c52;stroke: #512416;stroke-miterlimit: 10;stroke-width: 2.29848964226972px"/>
			<line x1="261.66" y1="244.282" x2="350.469" y2="317.655" style="fill: #a67c52;stroke: #512416;stroke-miterlimit: 10;stroke-width: 2.29848964226972px"/>
			<line x1="250.982" y1="253.104" x2="339.791" y2="326.477" style="fill: #a67c52;stroke: #512416;stroke-miterlimit: 10;stroke-width: 2.29848964226972px"/>
			<line x1="240.304" y1="261.926" x2="329.113" y2="335.299" style="fill: #a67c52;stroke: #512416;stroke-miterlimit: 10;stroke-width: 2.29848964226972px"/>
			<line x1="229.626" y1="270.748" x2="318.435" y2="344.121" style="fill: #a67c52;stroke: #512416;stroke-miterlimit: 10;stroke-width: 2.29848964226972px"/>
			<line x1="218.948" y1="279.57" x2="307.757" y2="352.943" style="fill: #a67c52;stroke: #512416;stroke-miterlimit: 10;stroke-width: 2.29848964226972px"/>
			<line x1="208.27" y1="288.392" x2="297.079" y2="361.765" style="fill: #a67c52;stroke: #512416;stroke-miterlimit: 10;stroke-width: 2.29848964226972px"/>
			<line x1="197.592" y1="297.214" x2="286.401" y2="370.587" style="fill: #a67c52;stroke: #512416;stroke-miterlimit: 10;stroke-width: 2.29848964226972px"/>
			<line x1="186.914" y1="306.036" x2="275.723" y2="379.409" style="fill: #a67c52;stroke: #512416;stroke-miterlimit: 10;stroke-width: 2.29848964226972px"/>
			<line x1="176.236" y1="314.858" x2="265.045" y2="388.231" style="fill: #a67c52;stroke: #512416;stroke-miterlimit: 10;stroke-width: 2.29848964226972px"/>
			<line x1="165.558" y1="323.68" x2="254.367" y2="397.053" style="fill: #a67c52;stroke: #512416;stroke-miterlimit: 10;stroke-width: 2.29848964226972px"/>
		</g>
	</g>

	<g id="aus">
		<path d="M76.893,266.943h.972l3.259-11.3h4.447l3.26,11.3h.99v3.081H83.969v-3.081h1.009l-.253-1.32H81.971l-.253,1.32h1.009v3.081H76.893Zm7.238-4.16-.414-1.98c-.216-1.061-.324-1.921-.324-1.921H83.3a18.235,18.235,0,0,1-.324,1.921l-.432,1.98Z" style="fill: #42c690"/>
		<path d="M91.329,258.722h-1.35v-3.08h6.572v3.08H95.218v5.761a2.959,2.959,0,0,0,.253,1.241,1.664,1.664,0,0,0,1.548.82,1.58,1.58,0,0,0,1.477-.78,2.467,2.467,0,0,0,.27-1.281v-5.761H97.433v-3.08h6.59v3.08h-1.368v5.741a6.583,6.583,0,0,1-1.153,3.861,5.623,5.623,0,0,1-4.5,1.941,5.845,5.845,0,0,1-4.483-1.861,6.038,6.038,0,0,1-1.189-3.941Z" style="fill: #42c690"/>
		<path d="M108.52,264.724v.9c0,.6.684.921,1.53.921s1.351-.32,1.351-.8c0-.84-1.386-1.139-2.629-1.68-1.783-.78-3.385-1.7-3.385-4.3,0-3.442,2.521-4.362,4.9-4.362,2.322,0,4.609.96,4.609,2.921v2.24h-3.439v-.76c0-.44-.486-.68-1.17-.68-.558,0-.991.16-.991.641,0,.719.955,1.1,2,1.5,2,.759,4.015,1.6,4.015,4.341,0,3.52-2.773,4.661-5.258,4.661-2.592,0-4.987-1.281-4.987-3.7v-1.839Z" style="fill: #42c690"/>
		<path d="M118.978,266.943h1.368v-7.961H119.5v1.92h-3.242v-5.26H128.3v5.26h-3.223v-1.92h-.846v7.961H125.6v3.081h-6.626Z" style="fill: #42c690"/>
		<path d="M139.086,264v.04A1.866,1.866,0,0,1,140,265l.612,1.48a.777.777,0,0,0,.811.46h.468v3.081h-2.611a1.7,1.7,0,0,1-1.837-1.06l-1.476-3.3c-.162-.38-.306-.54-.918-.54H134.8v1.82h1.17v3.081h-6.428v-3.081h1.368v-8.221h-1.368v-3.08h5.96a9.349,9.349,0,0,1,2.7.259,4.074,4.074,0,0,1,2.736,4.141A4.887,4.887,0,0,1,139.086,264Zm-3.331-2.021a1.35,1.35,0,0,0,.81-.219,1.521,1.521,0,0,0,.558-1.341c0-.88-.4-1.44-1.656-1.44H134.8v3Z" style="fill: #42c690"/>
		<path d="M142.521,266.943h.972l3.258-11.3H151.2l3.259,11.3h.99v3.081H149.6v-3.081H150.6l-.252-1.32H147.6l-.252,1.32h1.008v3.081h-5.833Zm7.238-4.16-.415-1.98c-.216-1.061-.323-1.921-.323-1.921h-.091a18.235,18.235,0,0,1-.324,1.921l-.432,1.98Z" style="fill: #42c690"/>
		<path d="M156.506,266.943h1.369v-7.961h-1.369v-3.34h6.626v3.34h-1.368v7.7h2v-2.021H167v5.361h-10.5Z" style="fill: #42c690"/>
		<path d="M168.188,266.943h1.369v-8.221h-1.369v-3.08h6.626v3.08h-1.368v8.221h1.368v3.081h-6.626Z" style="fill: #42c690"/>
		<path d="M175.856,266.943h.972l3.259-11.3h4.447l3.259,11.3h.991v3.081h-5.852v-3.081h1.008l-.252-1.32h-2.754l-.253,1.32h1.008v3.081h-5.833Zm7.238-4.16-.414-1.98c-.216-1.061-.324-1.921-.324-1.921h-.09a18.1,18.1,0,0,1-.325,1.921l-.431,1.98Z" style="fill: #42c690"/>
		<path d="M330.278,270.536h6v-9.478c0-1.16.039-2.4.039-2.4h-.079a4.892,4.892,0,0,1-1.04,1.44l-1.279,1.08-4.8-5.159,8.159-7.56h7.239v22.077H350.6v6.679H330.278Z" style="fill: #42c690"/>
		<path d="M356.4,262.018a6.781,6.781,0,0,1-2.839-5.52c0-4.119,3.08-8.518,9.838-8.518,5.639,0,10.4,3,10.4,8.2a10.447,10.447,0,0,1-2.839,6.519,7.254,7.254,0,0,1,3.64,6.159c0,4.2-3.48,8.839-11.118,8.839s-11.039-4.719-11.039-8.718C352.438,265.617,355.2,262.977,356.4,262.018Zm6.919,9.158c2.039,0,3.2-.92,3.2-2.48,0-1.44-2.32-2.28-4.879-3.439a4.633,4.633,0,0,0-1.52,3.079A3.022,3.022,0,0,0,363.316,271.176Zm1.8-11.2a6.665,6.665,0,0,0,1.039-3.12c0-1.319-1-2.239-2.718-2.239s-2.4.879-2.4,1.919C361.036,258.139,362.8,259.059,365.116,259.978Z" style="fill: #42c690"/>
		<path d="M378.078,269.576h7.679v7.639h-7.679Z" style="fill: #42c690"/>
		<path d="M389.4,262.777c0-8.238,2.72-14.8,11.119-14.8s11.118,6.559,11.118,14.8c0,8.2-2.72,14.918-11.118,14.918S389.4,270.977,389.4,262.777Zm13.558,0c0-4.119-.559-7.359-2.439-7.359s-2.44,3.24-2.44,7.359.56,7.479,2.44,7.479S402.954,266.9,402.954,262.777Z" style="fill: #42c690"/>
		<path d="M303.78,282.623a12.182,12.182,0,0,1-22.5,6.207,12.189,12.189,0,0,1-23.766-3.281,12.2,12.2,0,0,1-21,3.589A12.169,12.169,0,1,1,218,274.61l.238-12.653a40.247,40.247,0,0,1,80.48,1.5l-.168,8.982A12.084,12.084,0,0,1,303.78,282.623Z" style="fill: #42c690"/>
	</g>

	<g id="usa">
		<path d="M36.069,200.717h-1.35v-3.081h6.572v3.081H39.958v5.761a2.955,2.955,0,0,0,.252,1.24,1.666,1.666,0,0,0,1.549.82,1.576,1.576,0,0,0,1.476-.78,2.453,2.453,0,0,0,.27-1.28v-5.761H42.173v-3.081h6.59v3.081H47.4v5.741a6.6,6.6,0,0,1-1.153,3.861,5.625,5.625,0,0,1-4.5,1.94,5.849,5.849,0,0,1-4.484-1.86,6.045,6.045,0,0,1-1.188-3.941Z"/>
		<path d="M50.073,208.938h1.368v-8.221H50.073v-3.081H55.4l2.989,6.382a13.326,13.326,0,0,1,.594,1.66h.09s-.126-1.08-.126-1.8v-3.16H57.491v-3.081h6.716v3.081H62.838v11.3H58.914l-3.025-6.341a12.189,12.189,0,0,1-.6-1.66H55.2s.126,1.08.126,1.82v3.1h1.459v3.081H50.073Z"/>
		<path d="M65.7,208.938h1.368v-8.221H65.7v-3.081h6.626v3.081H70.954v8.221h1.369v3.081H65.7Z"/>
		<path d="M76.281,208.938h1.368v-7.961H76.8v1.92H73.562v-5.261H85.608V202.9H82.385v-1.92h-.846v7.961h1.368v3.081H76.281Z"/>
		<path d="M86.846,208.938h1.369v-8.221H86.846v-3.081H97.109V202.3H93.868v-1.32H92.1v2.12h3.421v3.361H92.1v2.22h1.944V207.4h3.241v4.621H86.846Z"/>
		<path d="M98.942,208.938h1.369v-8.221H98.942v-3.081h5.78a8.43,8.43,0,0,1,2.629.28c2.611.78,4.465,3.261,4.465,6.9,0,3.221-1.494,5.682-3.8,6.682a8.418,8.418,0,0,1-3.259.52H98.942Zm5.726-.26a3.437,3.437,0,0,0,1.873-.42,4.174,4.174,0,0,0,1.26-3.421c0-1.88-.666-3.06-1.6-3.56a3.068,3.068,0,0,0-1.531-.3H104.2v7.7Z"/>
		<path d="M120.9,206.718v.9c0,.6.684.92,1.531.92s1.35-.32,1.35-.8c0-.84-1.387-1.14-2.629-1.68-1.782-.78-3.384-1.7-3.384-4.3,0-3.441,2.52-4.361,4.9-4.361,2.322,0,4.609.96,4.609,2.92v2.241h-3.439v-.76c0-.44-.486-.68-1.17-.68-.559,0-.99.16-.99.64,0,.72.954,1.1,2,1.5,2,.761,4.015,1.6,4.015,4.341,0,3.521-2.773,4.661-5.257,4.661-2.593,0-4.988-1.28-4.988-3.7v-1.84Z"/>
		<path d="M131.36,208.938h1.369v-7.961h-.846v1.92h-3.241v-5.261h12.046V202.9h-3.224v-1.92h-.846v7.961h1.368v3.081H131.36Z"/>
		<path d="M140.414,208.938h.972l3.259-11.3h4.448l3.259,11.3h.99v3.081H147.49v-3.081H148.5l-.253-1.32h-2.755l-.252,1.32h1.009v3.081h-5.834Zm7.238-4.161-.414-1.98c-.216-1.06-.324-1.921-.324-1.921h-.09a18.235,18.235,0,0,1-.324,1.921l-.433,1.98Z"/>
		<path d="M155.751,208.938h1.368v-7.961h-.846v1.92h-3.241v-5.261h12.046V202.9h-3.224v-1.92h-.846v7.961h1.369v3.081h-6.626Z"/>
		<path d="M166.316,208.938h1.369v-8.221h-1.369v-3.081H176.58V202.3h-3.242v-1.32h-1.764v2.12H175v3.361h-3.421v2.22h1.945V207.4h3.241v4.621H166.316Z"/>
		<path d="M181.6,206.718v.9c0,.6.684.92,1.53.92s1.351-.32,1.351-.8c0-.84-1.386-1.14-2.629-1.68-1.783-.78-3.385-1.7-3.385-4.3,0-3.441,2.521-4.361,4.9-4.361,2.323,0,4.609.96,4.609,2.92v2.241h-3.439v-.76c0-.44-.486-.68-1.17-.68-.558,0-.991.16-.991.64,0,.72.955,1.1,2,1.5,2,.761,4.015,1.6,4.015,4.341,0,3.521-2.773,4.661-5.258,4.661-2.592,0-4.987-1.28-4.987-3.7v-1.84Z"/>
		<path d="M329.639,214.7c0-10.8,12.277-12.318,12.277-16.157,0-2.039-1.359-2.12-2.119-2.12-2.24,0-4,3.08-4,3.08l-5.839-4A11.468,11.468,0,0,1,340.6,188.98c4.439,0,10.239,2.4,10.239,9.038,0,8.079-11.6,10.159-11.878,13.518h5.6V208.3h6.758v9.919H330.038A19.457,19.457,0,0,1,329.639,214.7Z"/>
		<path d="M354.638,203.777c0-8.238,2.719-14.8,11.118-14.8s11.118,6.559,11.118,14.8c0,8.2-2.72,14.918-11.118,14.918S354.638,211.976,354.638,203.777Zm13.557,0c0-4.119-.559-7.359-2.439-7.359s-2.44,3.24-2.44,7.359.56,7.479,2.44,7.479S368.2,207.9,368.2,203.777Z"/>
		<path d="M380.518,210.576H388.2v7.639h-7.678Z"/>
		<path d="M395.557,203.018a6.78,6.78,0,0,1-2.84-5.519c0-4.12,3.08-8.519,9.839-8.519,5.638,0,10.4,3,10.4,8.2a10.447,10.447,0,0,1-2.839,6.519,7.253,7.253,0,0,1,3.64,6.159c0,4.2-3.48,8.839-11.118,8.839s-11.038-4.719-11.038-8.719C391.6,206.617,394.356,203.977,395.557,203.018Zm6.919,9.158c2.039,0,3.2-.92,3.2-2.48,0-1.44-2.32-2.279-4.879-3.439a4.634,4.634,0,0,0-1.521,3.079A3.023,3.023,0,0,0,402.476,212.176Zm1.8-11.2a6.649,6.649,0,0,0,1.039-3.12c0-1.319-1-2.239-2.718-2.239s-2.4.88-2.4,1.919C400.2,199.138,401.955,200.058,404.275,200.978Z"/>
		<path d="M303.78,223.821a12.182,12.182,0,0,1-22.5,6.207,12.189,12.189,0,0,1-23.766-3.281,12.2,12.2,0,0,1-21,3.589A12.169,12.169,0,1,1,218,215.808l.238-12.653a40.247,40.247,0,0,1,80.48,1.5l-.168,8.983A12.081,12.081,0,0,1,303.78,223.821Z"/>
	</g>

	<g id="nzl">
		<path d="M46.131,147.728H47.5v-8.222H46.131v-3.081H51.46l2.989,6.382a13.326,13.326,0,0,1,.594,1.66h.091s-.127-1.08-.127-1.8v-3.161H53.549v-3.081h6.716v3.081H58.9v11.3H54.972l-3.025-6.341a12.272,12.272,0,0,1-.594-1.66h-.091s.127,1.08.127,1.82v3.1h1.458v3.08H46.131Z"/>
		<path d="M61.755,147.728h1.368v-8.222H61.755v-3.081H72.018v4.661H68.777v-1.32H67.013v2.12h3.421v3.361H67.013v2.22h1.944v-1.28H72.2v4.621H61.755Z"/>
		<path d="M73.274,136.425h6.248v3.081H78.046l.81,4.981c.126.8.18,1.7.18,1.7h.072a16.689,16.689,0,0,1,.234-1.7L81,136.425h2.935l1.674,8.062a16.689,16.689,0,0,1,.234,1.7h.072s.036-.9.162-1.7l.828-4.981H85.41v-3.081h6.266v3.081H90.667l-2.43,11.3H83.988l-1.243-6.061a16.325,16.325,0,0,1-.234-1.8h-.072s-.09,1.021-.252,1.8l-1.242,6.061h-4.25l-2.412-11.3H73.274Z"/>
		<path d="M97.286,148.188l5.078-7.762a3.165,3.165,0,0,1,.594-.68v-.04a6.851,6.851,0,0,1-.792.06h-1.585v1.92H97.34v-5.261h10.227v2.56l-5.113,7.822a3.125,3.125,0,0,1-.595.68v.04a6.879,6.879,0,0,1,.793-.06h1.909v-2.02h3.24v5.361H97.286Z"/>
		<path d="M109.418,147.728h1.369v-8.222h-1.369v-3.081h10.264v4.661H116.44v-1.32h-1.764v2.12H118.1v3.361h-3.421v2.22h1.945v-1.28h3.24v4.621H109.418Z"/>
		<path d="M120.83,147.728h.972l3.259-11.3h4.448l3.259,11.3h.99v3.08h-5.852v-3.08h1.009l-.253-1.321h-2.755l-.252,1.321h1.009v3.08H120.83Zm7.238-4.162-.414-1.98c-.216-1.06-.324-1.92-.324-1.92h-.09a18.241,18.241,0,0,1-.324,1.92l-.433,1.98Z"/>
		<path d="M134.816,147.728h1.369v-7.962h-1.369v-3.341h6.626v3.341h-1.368v7.7h2v-2.02h3.241v5.361h-10.5Z"/>
		<path d="M145.958,147.728h.972l3.259-11.3h4.448l3.259,11.3h.99v3.08h-5.852v-3.08h1.008l-.252-1.321h-2.755l-.252,1.321h1.009v3.08h-5.834Zm7.238-4.162-.414-1.98c-.216-1.06-.324-1.92-.324-1.92h-.09a18.241,18.241,0,0,1-.324,1.92l-.433,1.98Z"/>
		<path d="M159.926,147.728h1.368v-8.222h-1.368v-3.081h5.329l2.989,6.382a13.326,13.326,0,0,1,.594,1.66h.091s-.127-1.08-.127-1.8v-3.161h-1.458v-3.081h6.716v3.081h-1.369v11.3h-3.924l-3.025-6.341a12.189,12.189,0,0,1-.595-1.66h-.09s.127,1.08.127,1.82v3.1h1.458v3.08h-6.716Z"/>
		<path d="M175.55,147.728h1.368v-8.222H175.55v-3.081h5.78a8.424,8.424,0,0,1,2.628.28c2.611.78,4.466,3.261,4.466,6.9,0,3.221-1.5,5.682-3.8,6.682a8.422,8.422,0,0,1-3.259.52H175.55Zm5.725-.261a3.433,3.433,0,0,0,1.873-.42,4.174,4.174,0,0,0,1.26-3.421c0-1.88-.666-3.06-1.6-3.56a3.064,3.064,0,0,0-1.531-.3h-.467v7.7Z"/>
		<path d="M329.639,155.7c0-10.8,12.277-12.318,12.277-16.157,0-2.039-1.359-2.12-2.119-2.12-2.24,0-4,3.08-4,3.08l-5.839-4A11.468,11.468,0,0,1,340.6,129.98c4.439,0,10.239,2.4,10.239,9.038,0,8.079-11.6,10.159-11.878,13.518h5.6V149.3h6.758v9.919H330.038A19.457,19.457,0,0,1,329.639,155.7Z"/>
		<path d="M358.357,144.018a6.782,6.782,0,0,1-2.839-5.519c0-4.12,3.08-8.519,9.838-8.519,5.639,0,10.4,3,10.4,8.2a10.447,10.447,0,0,1-2.839,6.519,7.253,7.253,0,0,1,3.64,6.159c0,4.2-3.48,8.839-11.118,8.839s-11.039-4.719-11.039-8.719C354.4,147.617,357.157,144.977,358.357,144.018Zm6.919,9.158c2.039,0,3.2-.92,3.2-2.48,0-1.44-2.32-2.279-4.879-3.439a4.634,4.634,0,0,0-1.521,3.079A3.023,3.023,0,0,0,365.276,153.176Zm1.8-11.2a6.66,6.66,0,0,0,1.039-3.12c0-1.319-1-2.239-2.719-2.239s-2.4.88-2.4,1.919C363,140.138,364.756,141.058,367.076,141.978Z"/>
		<path d="M380.038,151.576h7.679v7.639h-7.679Z"/>
		<path d="M390.517,147.537,400.6,130.459h10.438v15.678h3.2v6.439h-3.2v6.639h-8.318v-6.639h-12.2Zm7.8-1.48v.08h4.4V140.5a26.728,26.728,0,0,1,.32-3.319h-.16a27.818,27.818,0,0,1-1.36,3Z"/>
		<path d="M303.78,166.974a12.182,12.182,0,0,1-22.5,6.206,12.189,12.189,0,0,1-23.766-3.28,12.2,12.2,0,0,1-21,3.589A12.169,12.169,0,1,1,218,158.96l.238-12.652a40.247,40.247,0,0,1,80.48,1.5l-.168,8.982A12.083,12.083,0,0,1,303.78,166.974Z"/>
	</g>


	<g id="top_layer">
		<polygon points="149.962 42.061 149.962 66.909 149.962 72.5 133.861 72.5 141.912 56.97 133.861 42.061 149.962 42.061" style="fill: #278993"/>
		<polygon points="149.962 66.909 157.281 66.909 149.962 72.5 149.962 66.909" style="fill: #156572"/>
		<polygon points="349.761 42.061 349.761 66.909 349.761 72.5 365.861 72.5 357.811 56.97 365.861 42.061 349.761 42.061" style="fill: #278993"/>
		<polygon points="349.761 66.909 342.442 66.909 349.761 72.5 349.761 66.909" style="fill: #156572"/>
		<rect x="149.962" y="31.5" width="199.798" height="35.409" style="fill: #22bac7"/>
		<path d="M164.509, 40.747a4.47, 4.47, 0, 0, 0, 1.3.641, 5.609, 5.609, 0, 0, 0, 3.213, 0, 4.679, 4.679, 0, 0, 0, 1.315-.641, 3.124, 3.124, 0, 0, 0, .9-.961, 2.34, 2.34, 0, 0, 0, 0-2.393, 3.334, 3.334, 0, 0, 0-.9-.979, 4.549, 4.549, 0, 0, 0-1.315-.669, 5.39, 5.39, 0, 0, 0-3.213, 0, 4.35, 4.35, 0, 0, 0-1.3.669, 3.241, 3.241, 0, 0, 0-.873.979, 2.423, 2.423, 0, 0, 0, 0, 2.393A3.037, 3.037, 0, 0, 0, 164.509, 40.747Z" style="fill: #fff"/>
		<path d="M209.3, 42.772a5, 5, 0, 0, 0-1.745-.819, 10.748, 10.748, 0, 0, 0-2.846-.311, 14.642, 14.642, 0, 0, 0-4.731.707, 12.663, 12.663, 0, 0, 0-6.248, 4.493, 15.042, 15.042, 0, 0, 0-1.745, 3, 15.614, 15.614, 0, 0, 0-.962, 2.976, 12.785, 12.785, 0, 0, 0-.3, 2.534c-.237.182-.474.364-.71.538a13.283, 13.283, 0, 0, 1-2.062, 1.243, 11.5, 11.5, 0, 0, 1-2.34.829, 11.951, 11.951, 0, 0, 1-2.795.3, 8.289, 8.289, 0, 0, 1-1.631-.141, 2.8, 2.8, 0, 0, 1-1.164-.5, 2.181, 2.181, 0, 0, 1-.708-.989, 4.566, 4.566, 0, 0, 1-.241-1.611, 11.272, 11.272, 0, 0, 1, .266-2.327, 17.9, 17.9, 0, 0, 1, .733-2.515, 18.836, 18.836, 0, 0, 1, 1.1-2.431, 12.839, 12.839, 0, 0, 1, 1.379-2.072, 7.437, 7.437, 0, 0, 1, 1.555-1.451, 2.879, 2.879, 0, 0, 1, 1.619-.546, 1.321, 1.321, 0, 0, 1, 1.088.433, 1.76, 1.76, 0, 0, 1, .354, 1.149, 5.1, 5.1, 0, 0, 1-.632, 2.28, 4.165, 4.165, 0, 0, 0, 1.821.452, 3.328, 3.328, 0, 0, 0, 1.063-.169, 2.369, 2.369, 0, 0, 0, .885-.528, 2.49, 2.49, 0, 0, 0, .594-.876, 3.2, 3.2, 0, 0, 0, .215-1.234, 3.458, 3.458, 0, 0, 0-.253-1.281, 2.675, 2.675, 0, 0, 0-.91-1.14, 5.261, 5.261, 0, 0, 0-1.771-.81, 10.771, 10.771, 0, 0, 0-2.833-.311, 14.323, 14.323, 0, 0, 0-4.68.707, 13.338, 13.338, 0, 0, 0-3.6, 1.855, 12.262, 12.262, 0, 0, 0-2.631, 2.619, 15.913, 15.913, 0, 0, 0-1.745, 3, 15.025, 15.025, 0, 0, 0-.974, 2.986, 12.868, 12.868, 0, 0, 0-.3, 2.572c0, .275.013.54.037.794a5.448, 5.448, 0, 0, 1-.707.638, 4.988, 4.988, 0, 0, 1-1.329.706, 4.4, 4.4, 0, 0, 1-1.479.255, 3.145, 3.145, 0, 0, 1-1.594-.311, 1.208, 1.208, 0, 0, 1-.506-1.121, 5.132, 5.132, 0, 0, 1, .038-.613, 2.569, 2.569, 0, 0, 1, .164-.631l3.719-13.113h-7.463l-3.516, 12.378a12.723, 12.723, 0, 0, 0-.3, 1.366, 7.309, 7.309, 0, 0, 0-.1, 1.159, 4.669, 4.669, 0, 0, 0, .43, 2.091, 4, 4, 0, 0, 0, 1.177, 1.432, 4.93, 4.93, 0, 0, 0, 1.758.829, 8.591, 8.591, 0, 0, 0, 2.175.264, 14.6, 14.6, 0, 0, 0, 1.556-.094, 11.692, 11.692, 0, 0, 0, 1.834-.358, 11.925, 11.925, 0, 0, 0, 1.986-.754, 10, 10, 0, 0, 0, 2-1.281, 10.44, 10.44, 0, 0, 0, .774-.7, 4.873, 4.873, 0, 0, 0, 1.554, 1.758, 7.4, 7.4, 0, 0, 0, 2.555, 1.083, 14.676, 14.676, 0, 0, 0, 3.339.349, 17.005, 17.005, 0, 0, 0, 4.693-.612, 17.36, 17.36, 0, 0, 0, 6.768-3.641, 4.9, 4.9, 0, 0, 0, 1.972, 2.821, 7.262, 7.262, 0, 0, 0, 2.53, 1.083, 14.389, 14.389, 0, 0, 0, 3.3.349, 16.7, 16.7, 0, 0, 0, 3.011-.264, 8.543, 8.543, 0, 0, 0, 2.63-.923, 6.763, 6.763, 0, 0, 0, 2.049-1.752, 7.1, 7.1, 0, 0, 0, 1.265-2.77, 10.6, 10.6, 0, 0, 1-1.366.782, 15.149, 15.149, 0, 0, 1-1.556.65, 12.125, 12.125, 0, 0, 1-1.619.452, 7.829, 7.829, 0, 0, 1-1.581.17, 5.006, 5.006, 0, 0, 1-1.264-.151, 2.395, 2.395, 0, 0, 1-1.7-1.507, 4.111, 4.111, 0, 0, 1-.253-1.545, 4.2, 4.2, 0, 0, 1, .038-.556q.037-.291.088-.612a18.2, 18.2, 0, 0, 0, 4.478-.773, 15.088, 15.088, 0, 0, 0, 3.807-1.733, 9.218, 9.218, 0, 0, 0, 2.643-2.515, 5.41, 5.41, 0, 0, 0, .987-3.118, 4.072, 4.072, 0, 0, 0-.24-1.385A2.647, 2.647, 0, 0, 0, 209.3, 42.772ZM205.806, 47.6a6.981, 6.981, 0, 0, 1-1.669, 2.006, 9.066, 9.066, 0, 0, 1-2.416, 1.432, 8.071, 8.071, 0, 0, 1-2.859.594, 19.09, 19.09, 0, 0, 1, 1.075-2.789, 16.687, 16.687, 0, 0, 1, 1.493-2.562A8.713, 8.713, 0, 0, 1, 203.2, 44.4a3.163, 3.163, 0, 0, 1, 1.935-.725, 1.11, 1.11, 0, 0, 1, 1.012.433, 2.1, 2.1, 0, 0, 1, .278, 1.149A4.805, 4.805, 0, 0, 1, 205.806, 47.6Z" style="fill: #fff"/>
		<path d="M259.222, 46.786a2.576, 2.576, 0, 0, 0, .695-.9, 2.407, 2.407, 0, 0, 0, .228-1.008, 2.729, 2.729, 0, 0, 0-.228-1.093, 2.531, 2.531, 0, 0, 0-.683-.923, 3.548, 3.548, 0, 0, 0-1.125-.641, 4.538, 4.538, 0, 0, 0-1.556-.245, 7.34, 7.34, 0, 0, 0-1.771.207, 10.734, 10.734, 0, 0, 0-1.606.537, 11.546, 11.546, 0, 0, 0-1.48.763q-.709.434-1.391.886l.657-2.393H243.5L239.824, 54.9c-.43.34-.858.671-1.283.984a13.227, 13.227, 0, 0, 1-2.061, 1.243, 11.546, 11.546, 0, 0, 1-2.34.829, 11.966, 11.966, 0, 0, 1-2.8.3, 8.289, 8.289, 0, 0, 1-1.631-.141, 2.8, 2.8, 0, 0, 1-1.164-.5, 2.189, 2.189, 0, 0, 1-.708-.989, 4.566, 4.566, 0, 0, 1-.241-1.611, 11.272, 11.272, 0, 0, 1, .266-2.327, 17.775, 17.775, 0, 0, 1, .734-2.515, 18.7, 18.7, 0, 0, 1, 1.1-2.431, 12.839, 12.839, 0, 0, 1, 1.379-2.072, 7.462, 7.462, 0, 0, 1, 1.555-1.451, 2.881, 2.881, 0, 0, 1, 1.619-.546, 1.323, 1.323, 0, 0, 1, 1.088.433, 1.76, 1.76, 0, 0, 1, .354, 1.149, 5.1, 5.1, 0, 0, 1-.632, 2.28, 4.165, 4.165, 0, 0, 0, 1.821.452, 3.328, 3.328, 0, 0, 0, 1.063-.169, 2.369, 2.369, 0, 0, 0, .885-.528, 2.505, 2.505, 0, 0, 0, .595-.876, 3.216, 3.216, 0, 0, 0, .215-1.234, 3.478, 3.478, 0, 0, 0-.253-1.281, 2.685, 2.685, 0, 0, 0-.911-1.14, 5.261, 5.261, 0, 0, 0-1.771-.81, 10.777, 10.777, 0, 0, 0-2.833-.311, 14.323, 14.323, 0, 0, 0-4.68.707, 13.338, 13.338, 0, 0, 0-3.6, 1.855, 12.262, 12.262, 0, 0, 0-2.631, 2.619, 15.967, 15.967, 0, 0, 0-1.745, 3, 15.025, 15.025, 0, 0, 0-.974, 2.986, 12.859, 12.859, 0, 0, 0-.3, 2.572, 6.289, 6.289, 0, 0, 0, .569, 2.8, 4.884, 4.884, 0, 0, 0, 1.631, 1.893, 7.4, 7.4, 0, 0, 0, 2.555, 1.083, 14.676, 14.676, 0, 0, 0, 3.339.349, 17.01, 17.01, 0, 0, 0, 4.693-.612, 17.753, 17.753, 0, 0, 0, 3.9-1.611, 17.944, 17.944, 0, 0, 0, 2.429-1.651l-1.038, 3.648h7.463l4.149-14.658a15.294, 15.294, 0, 0, 1, 1.77-1.065, 4.441, 4.441, 0, 0, 1, 2-.405.688.688, 0, 0, 1, .544.189, 1.441, 1.441, 0, 0, 1, .265.471q.1.282.19.612a1.874, 1.874, 0, 0, 0, .291.612, 1.511, 1.511, 0, 0, 0, .594.471, 2.666, 2.666, 0, 0, 0, 1.126.189, 4.87, 4.87, 0, 0, 0, 1.644-.254A3.815, 3.815, 0, 0, 0, 259.222, 46.786Z" style="fill: #fff"/>
		<path d="M339.641, 57.77a2.265, 2.265, 0, 0, 1-1.631-.453, 1.594, 1.594, 0, 0, 1-.443-1.168, 5.085, 5.085, 0, 0, 1, .19-1.271q.189-.726.455-1.574t.594-1.771q.33-.922.6-1.855t.455-1.828a8.027, 8.027, 0, 0, 0, .19-1.667, 4.259, 4.259, 0, 0, 0-.43-1.979, 3.675, 3.675, 0, 0, 0-1.2-1.356, 5.348, 5.348, 0, 0, 0-1.821-.773, 10.087, 10.087, 0, 0, 0-2.289-.245, 12.192, 12.192, 0, 0, 0-1.569.113, 8.615, 8.615, 0, 0, 0-1.8.453, 9.184, 9.184, 0, 0, 0-1.922.989, 9.548, 9.548, 0, 0, 0-1.923, 1.724, 3.794, 3.794, 0, 0, 0-1.847-2.563, 5.145, 5.145, 0, 0, 0-1.568-.574, 9.519, 9.519, 0, 0, 0-1.9-.179, 12.9, 12.9, 0, 0, 0-1.442.085, 9.254, 9.254, 0, 0, 0-1.568.32, 9.555, 9.555, 0, 0, 0-1.645.659, 8.983, 8.983, 0, 0, 0-1.669, 1.121l.556-2h-7.462l-4.088, 14.366a5.1, 5.1, 0, 0, 1-.529.575, 4.447, 4.447, 0, 0, 1-1.177.782, 3.375, 3.375, 0, 0, 1-1.4.292q-2.124, 0-2.125-1.658a3.793, 3.793, 0, 0, 1, .051-.613, 3.039, 3.039, 0, 0, 1, .177-.631l3.719-13.113h-7.463l-.556, 2.054v-.283a1.631, 1.631, 0, 0, 0-1-1.394, 6.8, 6.8, 0, 0, 0-3.2-.565, 12.832, 12.832, 0, 0, 0-4.123.631, 12.586, 12.586, 0, 0, 0-3.352, 1.7, 12.893, 12.893, 0, 0, 0-2.58, 2.449, 15.629, 15.629, 0, 0, 0-1.834, 2.892, 14.442, 14.442, 0, 0, 0-1.088, 3.014, 12.4, 12.4, 0, 0, 0-.354, 2.826v.009c-.253.2-.507.39-.759.576a13.283, 13.283, 0, 0, 1-2.062, 1.243, 11.524, 11.524, 0, 0, 1-2.34.829, 11.963, 11.963, 0, 0, 1-2.795.3, 8.3, 8.3, 0, 0, 1-1.632-.141, 2.8, 2.8, 0, 0, 1-1.164-.5, 2.189, 2.189, 0, 0, 1-.708-.989, 4.591, 4.591, 0, 0, 1-.24-1.611, 7.248, 7.248, 0, 0, 1, .038-.726q.037-.386.088-.819a18.2, 18.2, 0, 0, 0, 4.478-.773, 15.088, 15.088, 0, 0, 0, 3.807-1.733, 9.218, 9.218, 0, 0, 0, 2.643-2.515, 5.41, 5.41, 0, 0, 0, .987-3.118, 4.072, 4.072, 0, 0, 0-.24-1.385, 2.647, 2.647, 0, 0, 0-.886-1.178, 5, 5, 0, 0, 0-1.745-.819, 10.748, 10.748, 0, 0, 0-2.846-.311, 14.632, 14.632, 0, 0, 0-4.73.707, 12.659, 12.659, 0, 0, 0-6.249, 4.493, 15.042, 15.042, 0, 0, 0-1.745, 3, 15.538, 15.538, 0, 0, 0-.961, 2.976, 12.666, 12.666, 0, 0, 0-.3, 2.563, 6.3, 6.3, 0, 0, 0, .569, 2.8, 4.887, 4.887, 0, 0, 0, 1.632, 1.893, 7.4, 7.4, 0, 0, 0, 2.555, 1.083, 14.663, 14.663, 0, 0, 0, 3.339.349, 17, 17, 0, 0, 0, 4.692-.612, 17.371, 17.371, 0, 0, 0, 6.81-3.677, 5.2, 5.2, 0, 0, 0, .35.992, 5.309, 5.309, 0, 0, 0, 1.543, 1.922, 6.1, 6.1, 0, 0, 0, 2.2, 1.055, 10.292, 10.292, 0, 0, 0, 2.58.32, 9.748, 9.748, 0, 0, 0, 2.542-.311, 9.9, 9.9, 0, 0, 0, 2.087-.81, 10.058, 10.058, 0, 0, 0, 1.695-1.13, 16.739, 16.739, 0, 0, 0, 1.391-1.291, 3.764, 3.764, 0, 0, 0, 1.582, 2.647, 6.086, 6.086, 0, 0, 0, 3.5.9, 13.6, 13.6, 0, 0, 0, 1.518-.094, 10.537, 10.537, 0, 0, 0, 3.617-1.112, 8.778, 8.778, 0, 0, 0, 1.056-.641l-.461, 1.621h7.463L314.041, 48.9a9.812, 9.812, 0, 0, 1, .708-1.4, 5.622, 5.622, 0, 0, 1, .924-1.149, 4.04, 4.04, 0, 0, 1, 1.163-.772, 3.45, 3.45, 0, 0, 1, 1.4-.283, 1.719, 1.719, 0, 0, 1, .747.141, 1.37, 1.37, 0, 0, 1, .746.914, 2.649, 2.649, 0, 0, 1, .076.641, 3.009, 3.009, 0, 0, 1-.152.961l-3.795, 13.32h7.463L326.841, 48.9a9.437, 9.437, 0, 0, 1, .708-1.385, 5.762, 5.762, 0, 0, 1, .911-1.131, 4.17, 4.17, 0, 0, 1, 1.113-.763, 3.085, 3.085, 0, 0, 1, 1.316-.282q1.87, 0, 1.872, 1.978a8.223, 8.223, 0, 0, 1-.367, 2.2q-.368, 1.282-.8, 2.657t-.8, 2.685a8.631, 8.631, 0, 0, 0-.367, 2.289, 5.188, 5.188, 0, 0, 0, .253, 1.611, 3.5, 3.5, 0, 0, 0, .86, 1.394, 4.324, 4.324, 0, 0, 0, 1.607.98, 7.276, 7.276, 0, 0, 0, 2.491.367, 8.52, 8.52, 0, 0, 0, 1.986-.226, 5.594, 5.594, 0, 0, 0, 1.72-.716, 4.656, 4.656, 0, 0, 0, 1.3-1.234, 4.266, 4.266, 0, 0, 0, .708-1.8A4.187, 4.187, 0, 0, 1, 339.641, 57.77Zm-72.159-9a14.1, 14.1, 0, 0, 1, 1.479-2.553, 8.739, 8.739, 0, 0, 1, 1.784-1.837, 3.21, 3.21, 0, 0, 1, 1.935-.706, 1.11, 1.11, 0, 0, 1, 1.012.433, 2.106, 2.106, 0, 0, 1, .278, 1.149, 4.749, 4.749, 0, 0, 1-.62, 2.327, 7.085, 7.085, 0, 0, 1-1.657, 2, 8.679, 8.679, 0, 0, 1-2.4, 1.423, 8.815, 8.815, 0, 0, 1-2.833.622A18.219, 18.219, 0, 0, 1, 267.482, 48.773ZM292.2, 54.359a4.539, 4.539, 0, 0, 1-.746, 1.489, 5.153, 5.153, 0, 0, 1-1.088, 1.064, 4.709, 4.709, 0, 0, 1-1.24.641, 3.867, 3.867, 0, 0, 1-1.227.217, 6.6, 6.6, 0, 0, 1-.809-.057, 1.762, 1.762, 0, 0, 1-.847-.349, 2.255, 2.255, 0, 0, 1-.671-.894, 4.22, 4.22, 0, 0, 1-.278-1.715, 10.532, 10.532, 0, 0, 1, .228-2.044, 14.712, 14.712, 0, 0, 1, .67-2.318, 16.076, 16.076, 0, 0, 1, 1.075-2.289, 10.735, 10.735, 0, 0, 1, 1.442-1.987, 6.9, 6.9, 0, 0, 1, 1.783-1.4, 4.263, 4.263, 0, 0, 1, 2.062-.527, 2.845, 2.845, 0, 0, 1, 1.037.16, 1.9, 1.9, 0, 0, 1, .645.4, 1.457, 1.457, 0, 0, 1, .342.49, 1.21, 1.21, 0, 0, 1, .1.424Z" style="fill: #fff"/>
		<path d="M118.8, 76.766c1.847, 0, 6.257.567, 6.257, 3.024v2.645h-4.011V81.28c0-.63-1.2-.735-2.036-.735-2.1, 0-3.507, 1.218-3.507, 3.738, 0, 2.918, 1.6, 4.3, 3.759, 4.3.819, 0, 1.931-.126, 1.931-.735V86.7h4.032v2.688c0, 2.351-4.221, 2.981-6.32, 2.981a7.8, 7.8, 0, 1, 1-.105-15.6Z" style="fill: #278993"/>
		<path d="M134.067, 76.766a7.658, 7.658, 0, 0, 1, 8.02, 7.706, 8.022, 8.022, 0, 0, 1-16.041, 0A7.659, 7.659, 0, 0, 1, 134.067, 76.766Zm0, 11.695c1.827, 0, 3.338-1.7, 3.338-3.989a3.366, 3.366, 0, 1, 0-6.676, 0C130.729, 86.76, 132.24, 88.461, 134.067, 88.461Z" style="fill: #278993"/>
		<path d="M143.035, 88.881h1.6v-8.63h-1.6V77.018h6.215l3.485, 6.7a13.153, 13.153, 0, 0, 1, .693, 1.742h.1a18.6, 18.6, 0, 0, 1-.147-1.889V80.251h-1.7V77.018h7.831v3.233h-1.6V92.114h-4.577l-3.527-6.656a12.007, 12.007, 0, 0, 1-.693-1.742h-.1a18.671, 18.671, 0, 0, 1, .147, 1.91v3.255h1.7v3.233h-7.832Z" style="fill: #278993"/>
		<path d="M164.454, 86.55V87.5c0, .63.8.966, 1.785.966s1.574-.336, 1.574-.84c0-.882-1.616-1.2-3.065-1.764-2.079-.818-3.947-1.784-3.947-4.514, 0-3.611, 2.939-4.577, 5.711-4.577, 2.708, 0, 5.375, 1.008, 5.375, 3.066v2.351h-4.011v-.8c0-.462-.566-.714-1.364-.714-.651, 0-1.155.168-1.155.672, 0, .756, 1.113, 1.155, 2.331, 1.575, 2.33.8, 4.682, 1.68, 4.682, 4.556, 0, 3.695-3.234, 4.892-6.131, 4.892-3.024, 0-5.816-1.344-5.816-3.884V86.55Z" style="fill: #278993"/>
		<path d="M174.64, 80.251h-1.575V77.018h7.664v3.233h-1.554V86.3a2.841, 2.841, 0, 0, 0, .294, 1.3, 2, 2, 0, 0, 0, 1.805.861A1.9, 1.9, 0, 0, 0, 183, 87.642a2.364, 2.364, 0, 0, 0, .315-1.344V80.251h-1.554V77.018h7.685v3.233h-1.6v6.026A6.441, 6.441, 0, 0, 1, 186.5, 90.33a6.914, 6.914, 0, 0, 1-5.249, 2.036, 7.2, 7.2, 0, 0, 1-5.228-1.952, 5.92, 5.92, 0, 0, 1-1.385-4.137Z" style="fill: #278993"/>
		<path d="M190.18, 88.881h1.553l.735-8.63h-1.595V77.018h6.907L199.5, 83.7c.273, 1.071.441, 1.994.441, 1.994h.042s.168-.9.462-1.994l1.721-6.677h6.908v3.233h-1.6l.735, 8.63h1.554v3.233h-7.223V88.881h1.239l-.21-4.409a13.5, 13.5, 0, 0, 1, .105-1.89H203.6s-.231, 1.071-.441, 1.806l-1.3, 5.018H198.1l-1.3-5.018c-.231-.756-.44-1.806-.44-1.806h-.084a14.924, 14.924, 0, 0, 1, .084, 1.89l-.189, 4.409H197.4v3.233H190.18Z" style="fill: #278993"/>
		<path d="M210.991, 88.881h1.595v-8.63h-1.595V77.018h7.726v3.233h-1.595v8.63h1.595v3.233h-7.726Z" style="fill: #278993"/>
		<path d="M220.209, 88.881h1.6v-8.63h-1.6V77.018h6.215l3.486, 6.7a13.153, 13.153, 0, 0, 1, .693, 1.742h.1a18.6, 18.6, 0, 0, 1-.147-1.889V80.251h-1.7V77.018h7.831v3.233H235.1V92.114h-4.577l-3.528-6.656a12.007, 12.007, 0, 0, 1-.693-1.742h-.1a18.671, 18.671, 0, 0, 1, .147, 1.91v3.255h1.7v3.233h-7.832Z" style="fill: #278993"/>
		<path d="M245.513, 76.766c2.751, 0, 6.194, 1.05, 6.194, 2.94v2.729h-4.031V81.343c0-.546-.735-.8-1.869-.8-2.435, 0-3.8, 1.113-3.8, 3.7, 0, 2.519, 1.323, 4.346, 4.094, 4.346.777, 0, 1.911-.147, 1.911-.735v-.588h-2.184V84.031h6.215v5.375c0, 2.225-4.43, 2.96-6.593, 2.96a7.8, 7.8, 0, 0, 1-8.125-7.936C237.325, 79.874, 240.747, 76.766, 245.513, 76.766Z" style="fill: #278993"/>
		<path d="M265.673, 76.766c1.848, 0, 6.257.567, 6.257, 3.024v2.645h-4.01V81.28c0-.63-1.2-.735-2.037-.735-2.1, 0-3.506, 1.218-3.506, 3.738, 0, 2.918, 1.6, 4.3, 3.758, 4.3.819, 0, 1.931-.126, 1.931-.735V86.7H272.1v2.688c0, 2.351-4.22, 2.981-6.32, 2.981a7.8, 7.8, 0, 1, 1-.105-15.6Z" style="fill: #278993"/>
		<path d="M280.94, 76.766a7.658, 7.658, 0, 0, 1, 8.021, 7.706, 8.022, 8.022, 0, 0, 1-16.041, 0A7.658, 7.658, 0, 0, 1, 280.94, 76.766Zm0, 11.695c1.827, 0, 3.338-1.7, 3.338-3.989a3.366, 3.366, 0, 1, 0-6.676, 0C277.6, 86.76, 279.113, 88.461, 280.94, 88.461Z" style="fill: #278993"/>
		<path d="M291.021, 80.251h-1.575V77.018h7.664v3.233h-1.553V86.3a2.841, 2.841, 0, 0, 0, .294, 1.3, 2, 2, 0, 0, 0, 1.805.861, 1.9, 1.9, 0, 0, 0, 1.722-.819, 2.372, 2.372, 0, 0, 0, .314-1.344V80.251h-1.553V77.018h7.684v3.233h-1.595v6.026a6.441, 6.441, 0, 0, 1-1.344, 4.053, 6.915, 6.915, 0, 0, 1-5.249, 2.036, 7.2, 7.2, 0, 0, 1-5.228-1.952, 5.916, 5.916, 0, 0, 1-1.386-4.137Z" style="fill: #278993"/>
		<path d="M306.834, 88.881h1.6v-8.63h-1.6V77.018h6.215l3.485, 6.7a13.153, 13.153, 0, 0, 1, .693, 1.742h.105a18.724, 18.724, 0, 0, 1-.146-1.889V80.251h-1.7V77.018h7.832v3.233h-1.595V92.114h-4.578l-3.528-6.656a12.076, 12.076, 0, 0, 1-.692-1.742h-.105a18.671, 18.671, 0, 0, 1, .147, 1.91v3.255h1.7v3.233h-7.832Z" style="fill: #278993"/>
		<path d="M327.141, 88.881h1.595V80.524h-.986V82.54h-3.779V77.018h14.046V82.54h-3.759V80.524h-.987v8.357h1.6v3.233h-7.726Z" style="fill: #278993"/>
		<path d="M350.07, 85.794v.042a2.1, 2.1, 0, 0, 1, 1.071, 1.008l.714, 1.554a.926.926, 0, 0, 0, .945.483h.546v3.233H350.3A2.015, 2.015, 0, 0, 1, 348.16, 91l-1.722-3.464c-.189-.4-.357-.567-1.071-.567h-.294v1.911h1.365v3.233h-7.5V88.881h1.6v-8.63h-1.6V77.018h6.951a12.041, 12.041, 0, 0, 1, 3.148.273, 4.308, 4.308, 0, 0, 1, 3.191, 4.346A4.949, 4.949, 0, 0, 1, 350.07, 85.794Zm-3.884-2.12a1.708, 1.708, 0, 0, 0, .945-.231, 1.529, 1.529, 0, 0, 0, .65-1.407c0-.924-.461-1.512-1.931-1.512h-.777v3.15Z" style="fill: #278993"/>
		<path d="M354.355, 88.881h1.6v-8.63h-1.6V77.018h7.727v3.233h-1.6v8.63h1.6v3.233h-7.727Z" style="fill: #278993"/>
		<path d="M363.575, 88.881h1.6v-8.63h-1.6V77.018h11.968V81.91h-3.779V80.524h-2.058V82.75H373.7v3.527h-3.989v2.331h2.268V87.264h3.779v4.85H363.575Z" style="fill: #278993"/>
		<path d="M380.879, 86.55V87.5c0, .63.8.966, 1.784.966s1.575-.336, 1.575-.84c0-.882-1.617-1.2-3.066-1.764-2.078-.818-3.947-1.784-3.947-4.514, 0-3.611, 2.939-4.577, 5.711-4.577, 2.709, 0, 5.375, 1.008, 5.375, 3.066v2.351H384.3v-.8c0-.462-.567-.714-1.365-.714-.651, 0-1.155.168-1.155.672, 0, .756, 1.114, 1.155, 2.33, 1.575, 2.331.8, 4.683, 1.68, 4.683, 4.556, 0, 3.695-3.233, 4.892-6.131, 4.892-3.023, 0-5.815-1.344-5.815-3.884V86.55Z" style="fill: #278993"/>
		<path d="M225.911, 22.881h1.595V14.524h-.986V16.54h-3.78V11.018h14.047V16.54h-3.759V14.524h-.986v8.357h1.595v3.233h-7.726Z" style="fill: #ff4d6f"/>
		<path d="M250.018, 10.766a7.658, 7.658, 0, 0, 1, 8.02, 7.706, 8.021, 8.021, 0, 0, 1-16.04, 0A7.658, 7.658, 0, 0, 1, 250.018, 10.766Zm0, 11.695c1.827, 0, 3.338-1.7, 3.338-3.989a3.366, 3.366, 0, 1, 0-6.676, 0C246.68, 20.76, 248.191, 22.461, 250.018, 22.461Z" style="fill: #ff4d6f"/>
		<path d="M263.815, 22.881h1.6v-8.63h-1.6V11.018h7.748a7.053, 7.053, 0, 0, 1, 2.5.315, 5.043, 5.043, 0, 0, 1, 3.086, 4.955, 5.129, 5.129, 0, 0, 1-3.044, 5, 7.656, 7.656, 0, 0, 1-2.415.315h-1.743v1.281h1.6v3.233h-7.727Zm7.2-4.787a1.759, 1.759, 0, 0, 0, 1.154-.336, 1.663, 1.663, 0, 0, 0, .546-1.449, 1.683, 1.683, 0, 0, 0-.525-1.449, 1.64, 1.64, 0, 0, 0-1.113-.336h-1.134v3.57Z" style="fill: #ff4d6f"/>
		<path d="M321.12, 118.39a3.27, 3.27, 0, 0, 1-1.695-.481s-.7, 2.851-.81, 3.57c-.045.2-.405.331-.645.331-.375, 0-1.32-.436-1.32-.826, 0-.525, 1.785-7.484, 2.34-9.42.045-.21.375-.314.585-.314.3, 0, 1.1.734, 1.1.734a3.31, 3.31, 0, 0, 1, 1.755-.734c.66, 0, 1.92.84, 1.92, 1.6a8.524, 8.524, 0, 0, 1-.81, 3.27.552.552, 0, 0, 0, .255.061c1.05, 0, 1.725-1.425, 1.725-1.425s.134-.271.315-.271c.21, 0, .54.24.54.42a1.524, 1.524, 0, 0, 1-.211.526, 3.383, 3.383, 0, 0, 1-2.805, 1.844c-.179, 0-.45-.014-.45-.014A2.464, 2.464, 0, 0, 1, 321.12, 118.39Zm-.465-1.366a.375.375, 0, 0, 0, .21-.12c-.27-.12-.45-.285-.45-.45, 0-.314.7-1.064, 1.02-1.064.06, 0, .12.014.18.014a7.789, 7.789, 0, 0, 0, .51-2.37.344.344, 0, 0, 0-.271-.329A1.64, 1.64, 0, 0, 0, 320.6, 113.8a11.567, 11.567, 0, 0, 0-.675, 2.58C319.92, 116.784, 320.445, 117.024, 320.655, 117.024Z" style="fill: #976a4b"/>
		<path d="M328.454, 111.25c.766, 0, 2.25.75, 2.25, 1.395, 0, .75-.975, 3.224-1.979, 3.224a6.5, 6.5, 0, 0, 1-1.2-.135, 1.539, 1.539, 0, 0, 0-.089.585c0, .316.644.646.99.646.809, 0, 2-.285, 2.97-2.2, 0, 0, .12-.271.314-.271s.511.24.511.42a1.67, 1.67, 0, 0, 1-.181.526c-1.019, 1.934-2.324, 2.865-3.539, 2.865-1.32, 0-3.285-.976-3.285-2.146C325.215, 114.46, 326.835, 111.25, 328.454, 111.25Zm.766, 1.59c0-.075-.135-.181-.255-.181-.465, 0-1.261, 1.486-1.4, 2.115A2.265, 2.265, 0, 0, 0, 329.22, 112.84Z" style="fill: #976a4b"/>
		<path d="M337.124, 114.76s.136-.271.33-.271.51.24.51.42a1.6, 1.6, 0, 0, 1-.194.526c-.826, 1.5-1.71, 2.865-2.791, 2.865-.78, 0-2.144-.676-2.144-1.261, 0-1.109.765-3.149.765-3.9, 0-.106-.345-.18-.345-.18s-.436, 1.019-1.155, 2.369c0, 0-.165.375-.42.375-.151, 0-.5-.21-.5-.42a1.364, 1.364, 0, 0, 1, .195-.5c.51-.944, 1.05-2.265, 1.05-2.265s-.736-.5-.736-1, .585-1.68, 1.156-1.68c.434, 0, 1.349.57, 1.349.915, 0, .314-.194.585-.194.96, 0, .24, 1.9.51, 1.9, 1.139, 0, .5-.84, 3.106-.84, 3.96, 0, .165.076.2.12.2C335.729, 117.01, 336.39, 116.109, 337.124, 114.76Z" style="fill: #976a4b"/>
		<path d="M340.169, 116.229c0-2.1, 1.484-4.979, 3.3-4.979.99, 0, 2.175.75, 2.175, 1.35s-.555, 1.83-.855, 1.83c-.375, 0-1.141-.481-1.141-.736, 0-.359.406-.915.406-1.08a.141.141, 0, 0, 0-.135-.09c-.585, 0-1.44, 2.026-1.44, 3.675a.881.881, 0, 0, 0, .839.78, 4.155, 4.155, 0, 0, 0, 3.106-2.219s.149-.271.33-.271c.21, 0, .524.24.524.42a1.528, 1.528, 0, 0, 1-.21.526c-1.094, 1.724-2.58, 2.865-4.034, 2.865C341.669, 118.3, 340.169, 117.3, 340.169, 116.229Z" style="fill: #976a4b"/>
		<path d="M354.313, 114.489c.2, 0, .51.24.51.42a1.6, 1.6, 0, 0, 1-.194.526c-.825, 1.5-1.71, 2.865-2.79, 2.865a2.977, 2.977, 0, 0, 1-2.04-.886, 2.952, 2.952, 0, 0, 1-1.665.886c-.691, 0-2.085-.946-2.085-1.755, 0-1.966, 1.71-5.3, 3.3-5.3a2.942, 2.942, 0, 0, 1, 1.98.824c.539, 0, 1.44.181, 1.44.556, 0, .524-1.02, 2.955-1.02, 4.154a.272.272, 0, 0, 0, .239.255c.526, 0, 1.261-.93, 2-2.279C353.983, 114.76, 354.118, 114.489, 354.313, 114.489Zm-4.41-1.755c-.524, 0-1.724, 2.491-1.724, 3.811a.339.339, 0, 0, 0, .3.329c.165, 0, .75-.255, 1.169-1.124a11.172, 11.172, 0, 0, 0, .795-2.641C350.443, 112.915, 350.144, 112.734, 349.9, 112.734Z" style="fill: #976a4b"/>
		<path d="M356.894, 118.39a3.271, 3.271, 0, 0, 1-1.7-.481s-.7, 2.851-.809, 3.57c-.045.2-.406.331-.646.331-.375, 0-1.319-.436-1.319-.826, 0-.525, 1.784-7.484, 2.34-9.42.045-.21.375-.314.585-.314.3, 0, 1.094.734, 1.094.734a3.31, 3.31, 0, 0, 1, 1.755-.734c.66, 0, 1.92.84, 1.92, 1.6a8.539, 8.539, 0, 0, 1-.809, 3.27.545.545, 0, 0, 0, .254.061c1.05, 0, 1.725-1.425, 1.725-1.425s.135-.271.316-.271c.209, 0, .54.24.54.42a1.524, 1.524, 0, 0, 1-.211.526, 3.385, 3.385, 0, 0, 1-2.805, 1.844c-.18, 0-.45-.014-.45-.014A2.464, 2.464, 0, 0, 1, 356.894, 118.39Zm-.465-1.366a.381.381, 0, 0, 0, .21-.12c-.271-.12-.451-.285-.451-.45, 0-.314.706-1.064, 1.02-1.064.061, 0, .12.014.181.014a7.783, 7.783, 0, 0, 0, .509-2.37.343.343, 0, 0, 0-.27-.329, 1.643, 1.643, 0, 0, 0-1.26, 1.095, 11.567, 11.567, 0, 0, 0-.675, 2.58C355.693, 116.784, 356.219, 117.024, 356.429, 117.024Z" style="fill: #976a4b"/>
		<path d="M362.113, 111.564c.06-.21.27-.314.6-.314.3, 0, 1.5.7, 1.5.989, 0, .346-1.2, 3.615-1.2, 4.665, 0, .061.105.135.15.135.435, 0, 1.215-.93, 1.98-2.279, 0, 0, .12-.271.315-.271s.51.24.51.42a1.528, 1.528, 0, 0, 1-.21.526c-.81, 1.5-1.71, 2.865-2.79, 2.865-.84, 0-2.175-.63-2.175-1.306A53.506, 53.506, 0, 0, 1, 362.113, 111.564Zm.72-1.62c0-.6.375-1.694.99-1.694.405, 0, 1.185.285, 1.185.779, 0, .6-.39, 1.7-.99, 1.7C363.613, 110.725, 362.833, 110.439, 362.833, 109.944Z" style="fill: #976a4b"/>
		<path d="M368.173, 111.279h1.109c.09, 0, .18.045.18.136, 0, .27-.329, 1.034-.569, 1.034h-1.036a36.276, 36.276, 0, 0, 0-1.019, 3.976.585.585, 0, 0, 0, .54.585c.494, 0, 1.26-.9, 1.994-2.25, 0, 0, .136-.271.33-.271s.51.24.51.42a1.6, 1.6, 0, 0, 1-.194.526c-.826, 1.5-1.71, 2.865-2.8, 2.865-1.021, 0-2.566-.78-2.566-1.53a41.6, 41.6, 0, 0, 1, 1-4.321h-.509a.162.162, 0, 0, 1-.165-.149c0-.18.344-1.021.615-1.021h.375c.285-1.05.5-1.8.6-2.13a.4.4, 0, 0, 1, .39-.33c.525, 0, 1.605.736, 1.605, 1.006a1.8, 1.8, 0, 0, 1-.059.36Z" style="fill: #976a4b"/>
		<path d="M377.262, 114.489c.195, 0, .509.24.509.42a1.6, 1.6, 0, 0, 1-.194.526c-.825, 1.5-1.71, 2.865-2.79, 2.865a2.977, 2.977, 0, 0, 1-2.04-.886, 2.948, 2.948, 0, 0, 1-1.665.886c-.69, 0-2.085-.946-2.085-1.755, 0-1.966, 1.71-5.3, 3.3-5.3a2.942, 2.942, 0, 0, 1, 1.98.824c.539, 0, 1.44.181, 1.44.556, 0, .524-1.02, 2.955-1.02, 4.154a.272.272, 0, 0, 0, .24.255c.525, 0, 1.26-.93, 2-2.279C376.932, 114.76, 377.066, 114.489, 377.262, 114.489Zm-4.41-1.755c-.525, 0-1.725, 2.491-1.725, 3.811a.339.339, 0, 0, 0, .3.329c.165, 0, .75-.255, 1.17-1.124a11.219, 11.219, 0, 0, 0, .8-2.641C373.392, 112.915, 373.092, 112.734, 372.852, 112.734Z" style="fill: #976a4b"/>
		<path d="M382.017, 118.3c-.781, 0-2.326-.66-2.326-1.335a81.816, 81.816, 0, 0, 1, 2.191-8.25.461.461, 0, 0, 1, .465-.316c.344, 0, 1.545.736, 1.545.991a1.63, 1.63, 0, 0, 1-.061.375c-.149.48-1.9, 6.375-1.9, 7.08, 0, .075.165.165.255.165.554, 0, 1.245-.9, 1.979-2.25, 0, 0, .135-.271.33-.271s.51.24.51.42a1.6, 1.6, 0, 0, 1-.194.526C384, 116.935, 383.1, 118.3, 382.017, 118.3Z" style="fill: #976a4b"/>
		<path d="M384.986, 111.564c.06-.21.27-.314.6-.314.3, 0, 1.5.7, 1.5.989, 0, .346-1.2, 3.615-1.2, 4.665, 0, .061.1.135.15.135.435, 0, 1.215-.93, 1.98-2.279, 0, 0, .12-.271.315-.271s.51.24.51.42a1.528, 1.528, 0, 0, 1-.21.526c-.81, 1.5-1.71, 2.865-2.79, 2.865-.84, 0-2.175-.63-2.175-1.306A53.506, 53.506, 0, 0, 1, 384.986, 111.564Zm.72-1.62c0-.6.375-1.694.99-1.694.4, 0, 1.185.285, 1.185.779, 0, .6-.39, 1.7-.99, 1.7C386.486, 110.725, 385.706, 110.439, 385.706, 109.944Z" style="fill: #976a4b"/>
		<path d="M391.046, 111.279h1.109c.09, 0, .18.045.18.136, 0, .27-.329, 1.034-.569, 1.034H390.73a36.276, 36.276, 0, 0, 0-1.019, 3.976.586.586, 0, 0, 0, .54.585c.494, 0, 1.26-.9, 1.994-2.25, 0, 0, .136-.271.33-.271s.51.24.51.42a1.6, 1.6, 0, 0, 1-.194.526c-.826, 1.5-1.71, 2.865-2.805, 2.865-1.021, 0-2.565-.78-2.565-1.53a41.5, 41.5, 0, 0, 1, 1-4.321h-.509a.162.162, 0, 0, 1-.165-.149c0-.18.344-1.021.615-1.021h.375c.285-1.05.5-1.8.6-2.13a.4.4, 0, 0, 1, .39-.33c.525, 0, 1.606.736, 1.606, 1.006a1.794, 1.794, 0, 0, 1-.06.36Z" style="fill: #976a4b"/>
		<path d="M397.975, 114.76s.135-.271.33-.271.509.24.509.42a1.6, 1.6, 0, 0, 1-.194.526c-.825, 1.5-1.71, 2.865-2.79, 2.865-.78, 0-2.145-.676-2.145-1.261, 0-1.109.765-3.149.765-3.9, 0-.106-.345-.18-.345-.18s-.435, 1.019-1.155, 2.369c0, 0-.165.375-.42.375-.15, 0-.495-.21-.495-.42a1.364, 1.364, 0, 0, 1, .195-.5c.51-.944, 1.05-2.265, 1.05-2.265s-.735-.5-.735-1, .585-1.68, 1.155-1.68c.435, 0, 1.35.57, 1.35.915, 0, .314-.195.585-.195.96, 0, .24, 1.9.51, 1.9, 1.139, 0, .5-.84, 3.106-.84, 3.96, 0, .165.075.2.12.2C396.58, 117.01, 397.24, 116.109, 397.975, 114.76Z" style="fill: #976a4b"/>
		<path d="M400.914, 111.25c.766, 0, 2.25.75, 2.25, 1.395, 0, .75-.975, 3.224-1.979, 3.224a6.5, 6.5, 0, 0, 1-1.2-.135, 1.539, 1.539, 0, 0, 0-.089.585c0, .316.644.646.99.646.809, 0, 2-.285, 2.969-2.2, 0, 0, .121-.271.315-.271s.511.24.511.42a1.67, 1.67, 0, 0, 1-.181.526c-1.02, 1.934-2.324, 2.865-3.539, 2.865-1.32, 0-3.285-.976-3.285-2.146C397.675, 114.46, 399.3, 111.25, 400.914, 111.25Zm.766, 1.59c0-.075-.135-.181-.255-.181-.465, 0-1.261, 1.486-1.4, 2.115A2.265, 2.265, 0, 0, 0, 401.68, 112.84Z" style="fill: #976a4b"/>
		<path d="M402.85, 115.765c0-.765, 1.335-1.425, 1.335-1.425s1.379-2.1, 1.889-2.941a.826.826, 0, 0, 1, .6-.344c.3, 0, 1.26.69, 1.26.96, 0, 1.455.629, 3.045.629, 4.17a2.833, 2.833, 0, 0, 1-2.49, 2.115C404.574, 118.3, 402.85, 116.694, 402.85, 115.765Zm2.25-.061c0, .75.4, 1.275.585, 1.275.269, 0, .615-.27.615-.809, 0-1.08-.2-1.62-.2-2.566A5.384, 5.384, 0, 0, 0, 405.1, 115.7Z" style="fill: #976a4b"/>
		<path d="M415.569, 108.925c-.764, 1.845-3.465, 8.715-3.674, 9.165-.06.135-.135.21-.27.21-.285, 0-1.41-.466-1.41-.78a.666.666, 0, 0, 1, .075-.255l3.84-9.39a.392.392, 0, 0, 1, .33-.226c.345, 0, 1.26.526, 1.26.781A1.375, 1.375, 0, 0, 1, 415.569, 108.925Z" style="fill: #976a4b"/>
		<path d="M418.09, 115.314a34.754, 34.754, 0, 0, 0, 1.05-3.779.388.388, 0, 0, 1, .435-.285c.4, 0, 1.59.66, 1.59.93a2.478, 2.478, 0, 0, 1-.061.36c-.12.614-.5, 2.175-1, 4.169l-.09.315a6.486, 6.486, 0, 0, 0, 2.01-2.264s.15-.271.33-.271.509.24.509.42a1.6, 1.6, 0, 0, 1-.194.526, 7.008, 7.008, 0, 0, 1-2.926, 2.669, 36.9, 36.9, 0, 0, 1-1.17, 3.84, 2.824, 2.824, 0, 0, 1-2.009.855c-.871, 0-2-.945-2-1.454, 0-.946, 1.276-1.846, 2.926-2.835.239-.811.39-1.306.39-1.306-.57.66-1.021, 1.1-1.59, 1.1-.93, 0-2.1-.931-2.1-1.561a41.174, 41.174, 0, 0, 1, 1.305-5.2.443.443, 0, 0, 1, .4-.285c.526, 0, 1.606.689, 1.606.96a1.349, 1.349, 0, 0, 1-.061.359, 34.5, 34.5, 0, 0, 0-1.019, 4.111c0, .09.15.179.21.179C417.069, 116.859, 417.9, 115.779, 418.09, 115.314Zm-.96, 4.486c-1.035.675-1.395, 1.095-1.395, 1.425, 0, .059.045.179.24.179a.99.99, 0, 0, 0, .72-.36A5.481, 5.481, 0, 0, 0, 417.13, 119.8Z" style="fill: #976a4b"/>
		<path d="M424.959, 111.25c.766, 0, 2.25.75, 2.25, 1.395, 0, .75-.975, 3.224-1.98, 3.224a6.494, 6.494, 0, 0, 1-1.2-.135, 1.524, 1.524, 0, 0, 0-.09.585c0, .316.645.646.991.646.809, 0, 2-.285, 2.969-2.2, 0, 0, .121-.271.315-.271s.511.24.511.42a1.67, 1.67, 0, 0, 1-.181.526c-1.02, 1.934-2.324, 2.865-3.539, 2.865-1.32, 0-3.285-.976-3.285-2.146C421.72, 114.46, 423.34, 111.25, 424.959, 111.25Zm.766, 1.59c0-.075-.135-.181-.255-.181-.465, 0-1.261, 1.486-1.4, 2.115A2.265, 2.265, 0, 0, 0, 425.725, 112.84Z" style="fill: #976a4b"/>
		<path d="M435.789, 114.489c.195, 0, .51.24.51.42a1.6, 1.6, 0, 0, 1-.195.526c-.825, 1.5-1.709, 2.865-2.79, 2.865a2.979, 2.979, 0, 0, 1-2.04-.886, 2.948, 2.948, 0, 0, 1-1.665.886c-.69, 0-2.085-.946-2.085-1.755, 0-1.966, 1.71-5.3, 3.3-5.3a2.946, 2.946, 0, 0, 1, 1.981.824c.539, 0, 1.439.181, 1.439.556, 0, .524-1.019, 2.955-1.019, 4.154a.272.272, 0, 0, 0, .239.255c.525, 0, 1.261-.93, 2-2.279C435.459, 114.76, 435.594, 114.489, 435.789, 114.489Zm-4.41-1.755c-.525, 0-1.725, 2.491-1.725, 3.811a.339.339, 0, 0, 0, .3.329c.165, 0, .75-.255, 1.17-1.124a11.172, 11.172, 0, 0, 0, .795-2.641C431.919, 112.915, 431.619, 112.734, 431.379, 112.734Z" style="fill: #976a4b"/>
		<path d="M441.188, 114.76s.136-.271.331-.271.509.24.509.42a1.6, 1.6, 0, 0, 1-.194.526c-.825, 1.5-1.71, 2.865-2.79, 2.865-.78, 0-2.145-.676-2.145-1.261, 0-1.109.765-3.149.765-3.9, 0-.106-.345-.18-.345-.18s-.435, 1.019-1.155, 2.369c0, 0-.165.375-.42.375-.15, 0-.5-.21-.5-.42a1.364, 1.364, 0, 0, 1, .195-.5c.51-.944, 1.05-2.265, 1.05-2.265s-.735-.5-.735-1, .585-1.68, 1.155-1.68c.435, 0, 1.35.57, 1.35.915, 0, .314-.195.585-.195.96, 0, .24, 1.9.51, 1.9, 1.139, 0, .5-.84, 3.106-.84, 3.96, 0, .165.075.2.12.2C439.794, 117.01, 440.454, 116.109, 441.188, 114.76Z" style="fill: #976a4b"/>
		<path d="M95.519, 117.01c.45, 0, 1.245-.9, 1.98-2.25, 0, 0, .135-.271.33-.271s.51.24.51.42a1.6, 1.6, 0, 0, 1-.195.526c-.825, 1.5-1.71, 2.865-2.79, 2.865-.675, 0-2.175-.63-2.175-1.306, 0-.96.84-3.359.84-3.93a.322.322, 0, 0, 0-.3-.3, 1.32, 1.32, 0, 0, 0-1.094.735, 42.29, 42.29, 0, 0, 0-1.17, 4.454.588.588, 0, 0, 1-.571.346c-.344, 0-1.425-.375-1.425-.78, 0-.39, 1.14-4.935, 1.456-5.956a.683.683, 0, 0, 1, .614-.314c.346, 0, 1.006.734, 1.006.734a6.622, 6.622, 0, 0, 1, 2.249-.734c.57, 0, 1.545.66, 1.545, 1.215, 0, .7-.93, 3.585-.93, 4.38C95.4, 116.9, 95.444, 117.01, 95.519, 117.01Z" style="fill: #976a4b"/>
		<path d="M105.389, 114.489c.2, 0, .51.24.51.42a1.6, 1.6, 0, 0, 1-.194.526c-.826, 1.5-1.71, 2.865-2.79, 2.865a2.975, 2.975, 0, 0, 1-2.04-.886, 2.952, 2.952, 0, 0, 1-1.666.886c-.69, 0-2.084-.946-2.084-1.755, 0-1.966, 1.709-5.3, 3.3-5.3a2.943, 2.943, 0, 0, 1, 1.981.824c.539, 0, 1.439.181, 1.439.556, 0, .524-1.019, 2.955-1.019, 4.154a.272.272, 0, 0, 0, .239.255c.525, 0, 1.261-.93, 2-2.279C105.059, 114.76, 105.194, 114.489, 105.389, 114.489Zm-4.41-1.755c-.524, 0-1.725, 2.491-1.725, 3.811a.339.339, 0, 0, 0, .3.329c.165, 0, .75-.255, 1.17-1.124a11.172, 11.172, 0, 0, 0, .8-2.641C101.519, 112.915, 101.219, 112.734, 100.979, 112.734Z" style="fill: #976a4b"/>
		<path d="M113.864, 117.01c.45, 0, 1.26-.9, 1.995-2.25, 0, 0, .135-.271.33-.271s.51.24.51.42a1.59, 1.59, 0, 0, 1-.2.526c-.839, 1.5-1.71, 2.865-2.79, 2.865-.674, 0-2.159-.63-2.159-1.306, 0-.734.84-3.359.84-3.93a.337.337, 0, 0, 0-.315-.285, 1.281, 1.281, 0, 0, 0-1.095.766c-.316.915-.99, 3.989-1.066, 4.409-.044.21-.254.346-.554.346-.36, 0-1.41-.466-1.41-.87s.975-4.111.975-4.441a.282.282, 0, 0, 0-.27-.21, 1.2, 1.2, 0, 0, 0-1.125.721c-.39.989-1.08, 4.02-1.185, 4.454a.537.537, 0, 0, 1-.555.346c-.36, 0-1.395-.45-1.395-.856, 0-.389, 1.14-4.859, 1.455-5.88.075-.21.255-.314.585-.314.375, 0, 1.019.734, 1.019.734a5.6, 5.6, 0, 0, 1, 2.071-.734c.72, 0, 1.38.84, 1.38.84a5.992, 5.992, 0, 0, 1, 2.219-.84c.63, 0, 1.545.614, 1.545, 1.17, 0, .7-.929, 3.63-.929, 4.425C113.744, 116.92, 113.8, 117.01, 113.864, 117.01Z" style="fill: #976a4b"/>
		<path d="M120.284, 115.885s.269-.375.45-.375c.21, 0, .63.344.63.524a1.859, 1.859, 0, 0, 1-.33.615, 3.769, 3.769, 0, 0, 1-2.88, 1.651c-1.02, 0-2.655-.9-2.655-2.071, 0-1.695, 1.575-4.979, 3.165-4.979.765, 0, 2.325.885, 2.325, 1.529, 0, .8-1.05, 3.135-2.055, 3.135a5.25, 5.25, 0, 0, 1-1.125-.135, 1.046, 1.046, 0, 0, 0-.06.391.826.826, 0, 0, 0, .69.8A2.248, 2.248, 0, 0, 0, 120.284, 115.885Zm-.855-3.061a.277.277, 0, 0, 0-.225-.165c-.48, 0-1.23, 1.486-1.366, 2.115C118.874, 114.609, 119.429, 113.215, 119.429, 112.824Z" style="fill: #976a4b"/>
		<path d="M129.973, 117.279c-.18, 0-.39, 0-.6-.014a2.257, 2.257, 0, 0, 1-1.741, 1.035c-1.05, 0-2.925-.99-2.925-2.071, 0-2.084, 1.425-4.979, 3.241-4.979, 1.319, 0, 2.909, 1.095, 2.909, 2.024a6.873, 6.873, 0, 0, 1-.734, 2.821, 1.068, 1.068, 0, 0, 0, .389.045c.9, 0, 1.6-1.38, 1.6-1.38s.135-.271.315-.271c.21, 0, .54.24.54.42a1.528, 1.528, 0, 0, 1-.21.526A3.66, 3.66, 0, 0, 1, 129.973, 117.279Zm-2.64-.255a.46.46, 0, 0, 0, .315-.179.357.357, 0, 0, 1-.165-.316, 1.618, 1.618, 0, 0, 1, 1.02-1.109, 6.516, 6.516, 0, 0, 0, .616-2.46.456.456, 0, 0, 0-.466-.346c-.51, 0-1.695, 2.3-1.695, 3.976A.424.424, 0, 0, 0, 127.333, 117.024Z" style="fill: #976a4b"/>
		<path d="M135.343, 115.614s.21-.255.406-.255a.612.612, 0, 0, 1, .479.465, 1.06, 1.06, 0, 0, 1-.239.465, 5.148, 5.148, 0, 0, 1-2.311, 1.695, 6.209, 6.209, 0, 0, 1, .63, 2.76, 2.11, 2.11, 0, 0, 1-1.814, 1.95c-.93, 0-1.965-.6-1.965-1.349, 0-1.1, 2.595-10.665, 3.255-12.63a.505.505, 0, 0, 1, .479-.316c.316, 0, 1.5.75, 1.5, 1a1.618, 1.618, 0, 0, 1-.059.375c-.106.391-1.021, 3.6-1.951, 7.066A4.117, 4.117, 0, 0, 0, 135.343, 115.614Zm-2.925, 5.715a.176.176, 0, 0, 0, .135.15.844.844, 0, 0, 0, .391-.735, 7.532, 7.532, 0, 0, 0-.21-1.6A9.731, 9.731, 0, 0, 0, 132.418, 121.329Z" style="fill: #976a4b"/>
		<path d="M142.213, 116.229c0-2.1, 1.485-4.979, 3.3-4.979.99, 0, 2.175.75, 2.175, 1.35s-.555, 1.83-.855, 1.83c-.375, 0-1.14-.481-1.14-.736, 0-.359.405-.915.405-1.08a.14.14, 0, 0, 0-.135-.09c-.585, 0-1.44, 2.026-1.44, 3.675a.881.881, 0, 0, 0, .84.78, 4.154, 4.154, 0, 0, 0, 3.1-2.219s.15-.271.33-.271c.21, 0, .525.24.525.42a1.528, 1.528, 0, 0, 1-.21.526c-1.095, 1.724-2.58, 2.865-4.034, 2.865C143.713, 118.3, 142.213, 117.3, 142.213, 116.229Z" style="fill: #976a4b"/>
		<path d="M153.478, 117.279c-.18, 0-.39, 0-.6-.014a2.254, 2.254, 0, 0, 1-1.74, 1.035c-1.05, 0-2.925-.99-2.925-2.071, 0-2.084, 1.425-4.979, 3.241-4.979, 1.319, 0, 2.909, 1.095, 2.909, 2.024a6.86, 6.86, 0, 0, 1-.735, 2.821, 1.074, 1.074, 0, 0, 0, .39.045c.9, 0, 1.6-1.38, 1.6-1.38s.135-.271.315-.271c.21, 0, .54.24.54.42a1.528, 1.528, 0, 0, 1-.21.526A3.66, 3.66, 0, 0, 1, 153.478, 117.279Zm-2.64-.255a.46.46, 0, 0, 0, .315-.179.357.357, 0, 0, 1-.165-.316, 1.618, 1.618, 0, 0, 1, 1.02-1.109, 6.516, 6.516, 0, 0, 0, .616-2.46.457.457, 0, 0, 0-.466-.346c-.51, 0-1.695, 2.3-1.695, 3.976A.424.424, 0, 0, 0, 150.838, 117.024Z" style="fill: #976a4b"/>
		<path d="M159.194, 117.31a5.65, 5.65, 0, 0, 1-1.981.99c-.929, 0-2.085-.931-2.085-1.561a41.174, 41.174, 0, 0, 1, 1.305-5.2.445.445, 0, 0, 1, .405-.285c.436, 0, 1.606.689, 1.606.96a1.349, 1.349, 0, 0, 1-.061.359, 34.5, 34.5, 0, 0, 0-1.019, 4.111.136.136, 0, 0, 0, .12.149c.6, 0, 1.545-1.034, 1.68-1.515.375-1.214.87-3.149, 1.064-3.779a.359.359, 0, 0, 1, .391-.285c.479, 0, 1.6.689, 1.6.96a1.434, 1.434, 0, 0, 1-.059.359, 28.025, 28.025, 0, 0, 0-1.081, 4.276c0, .075.06.165.121.165.479, 0, 1.245-.9, 1.979-2.25, 0, 0, .135-.271.33-.271s.51.24.51.42a1.6, 1.6, 0, 0, 1-.194.526c-.841, 1.5-1.71, 2.865-2.79, 2.865C160.364, 118.3, 159.3, 117.744, 159.194, 117.31Z" style="fill: #976a4b"/>
		<path d="M168.553, 117.01c.45, 0, 1.245-.9, 1.98-2.25, 0, 0, .135-.271.33-.271s.511.24.511.42a1.59, 1.59, 0, 0, 1-.2.526c-.825, 1.5-1.71, 2.865-2.79, 2.865-.675, 0-2.175-.63-2.175-1.306, 0-.96.84-3.359.84-3.93a.322.322, 0, 0, 0-.3-.3, 1.32, 1.32, 0, 0, 0-1.094.735, 42.538, 42.538, 0, 0, 0-1.17, 4.454.588.588, 0, 0, 1-.571.346c-.344, 0-1.424-.375-1.424-.78, 0-.39, 1.139-4.935, 1.455-5.956a.684.684, 0, 0, 1, .614-.314c.346, 0, 1.005.734, 1.005.734a6.631, 6.631, 0, 0, 1, 2.25-.734c.57, 0, 1.545.66, 1.545, 1.215, 0, .7-.93, 3.585-.93, 4.38C168.433, 116.9, 168.478, 117.01, 168.553, 117.01Z" style="fill: #976a4b"/>
		<path d="M173.564, 111.279h1.109c.09, 0, .18.045.18.136, 0, .27-.329, 1.034-.569, 1.034h-1.035a36.122, 36.122, 0, 0, 0-1.02, 3.976.586.586, 0, 0, 0, .54.585c.494, 0, 1.26-.9, 1.994-2.25, 0, 0, .136-.271.33-.271s.51.24.51.42a1.6, 1.6, 0, 0, 1-.194.526c-.826, 1.5-1.71, 2.865-2.8, 2.865-1.021, 0-2.565-.78-2.565-1.53a41.5, 41.5, 0, 0, 1, 1-4.321h-.509a.162.162, 0, 0, 1-.165-.149c0-.18.344-1.021.615-1.021h.375c.285-1.05.5-1.8.6-2.13a.4.4, 0, 0, 1, .39-.33c.526, 0, 1.606.736, 1.606, 1.006a1.794, 1.794, 0, 0, 1-.06.36Z" style="fill: #976a4b"/>
		<path d="M180.493, 114.76s.135-.271.33-.271.51.24.51.42a1.6, 1.6, 0, 0, 1-.195.526c-.825, 1.5-1.71, 2.865-2.79, 2.865-.78, 0-2.145-.676-2.145-1.261, 0-1.109.765-3.149.765-3.9, 0-.106-.344-.18-.344-.18s-.436, 1.019-1.156, 2.369c0, 0-.165.375-.42.375-.15, 0-.5-.21-.5-.42a1.36, 1.36, 0, 0, 1, .2-.5c.509-.944, 1.049-2.265, 1.049-2.265s-.735-.5-.735-1, .585-1.68, 1.155-1.68c.435, 0, 1.35.57, 1.35.915, 0, .314-.194.585-.194.96, 0, .24, 1.9.51, 1.9, 1.139, 0, .5-.84, 3.106-.84, 3.96, 0, .165.075.2.12.2C179.1, 117.01, 179.758, 116.109, 180.493, 114.76Z" style="fill: #976a4b"/>
		<path d="M182.113, 118.3c-.93, 0-2.1-.931-2.1-1.561a41.174, 41.174, 0, 0, 1, 1.305-5.2.442.442, 0, 0, 1, .4-.285c.526, 0, 1.606.689, 1.606.96a1.39, 1.39, 0, 0, 1-.061.359, 34.5, 34.5, 0, 0, 0-1.019, 4.111c0, .09.15.179.21.179.434, 0, 1.259-1.08, 1.455-1.545a34.718, 34.718, 0, 0, 0, 1.049-3.779.389.389, 0, 0, 1, .436-.285c.4, 0, 1.59.66, 1.59.93a1.363, 1.363, 0, 0, 1-.061.36c-.179.614-.764, 2.88-1.575, 6.149.795.105, 1.335.435, 1.335.63, 0, .255-.4.781-.675.781-.239, 0-.45-.33-1-.465a16.508, 16.508, 0, 0, 1-.75, 2.369, 2.581, 2.581, 0, 0, 1-1.889.8c-.87, 0-1.981-.96-1.981-1.47, 0-1.125, 1.681-2.1, 2.835-2.444.256-.825.481-1.681.481-1.681C183.132, 117.864, 182.682, 118.3, 182.113, 118.3Zm.779, 1.6c-.644.33-1.334.781-1.334, 1.321a.24.24, 0, 0, 0, .194.179, 1.079, 1.079, 0, 0, 0, .736-.36C182.608, 120.774, 182.682, 120.52, 182.892, 119.9Z" style="fill: #976a4b"/>
		<path d="M247.381, 152.32h7.6v-15.4c0-1.35.05-2.75.05-2.75h-.1a6.77, 6.77, 0, 0, 1-1.4, 1.9l-2.15, 1.951-5.05-5.4, 9.65-9.05h7.551V152.32h7.651v7h-23.8Z" style="fill: #fff"/>
		<path d="M281.167, 144.358c.438-.039, 1.171-.07, 2.134-.094" style="fill: none;stroke: #a67c52;stroke-linecap: round;stroke-linejoin: round;stroke-width: 1.71196305751801px"/>
		<path d="M286.441, 144.212c3.011-.031, 6.916-.034, 10.992-.021" style="fill: none;stroke: #a67c52;stroke-linecap: round;stroke-linejoin: round;stroke-width: 1.71196305751801px;stroke-dasharray: 3.141434669494629, 3.141434669494629, 3.141434669494629, 3.141434669494629"/>
		<path d="M299.005, 144.2c6.529.025, 13.257.084, 17.283.124" style="fill: none;stroke: #a67c52;stroke-linecap: round;stroke-linejoin: round;stroke-width: 1.71196305751801px;stroke-dasharray: 3.141434669494629, 3.141434669494629, 3.141434669494629, 3.141434669494629, 3.141434669494629, 3.141434669494629"/>
		<path d="M317.862, 144.335l2.138.023" style="fill: none;stroke: #a67c52;stroke-linecap: round;stroke-linejoin: round;stroke-width: 1.71196305751801px"/>
		<path d="M193.167, 144.358c.438-.039, 1.171-.07, 2.134-.094" style="fill: none;stroke: #a67c52;stroke-linecap: round;stroke-linejoin: round;stroke-width: 1.71196305751801px"/>
		<path d="M198.441, 144.212c3.011-.031, 6.916-.034, 10.992-.021" style="fill: none;stroke: #a67c52;stroke-linecap: round;stroke-linejoin: round;stroke-width: 1.71196305751801px;stroke-dasharray: 3.141434669494629, 3.141434669494629, 3.141434669494629, 3.141434669494629"/>
		<path d="M211.005, 144.2c6.529.025, 13.257.084, 17.283.124" style="fill: none;stroke: #a67c52;stroke-linecap: round;stroke-linejoin: round;stroke-width: 1.71196305751801px;stroke-dasharray: 3.141434669494629, 3.141434669494629, 3.141434669494629, 3.141434669494629, 3.141434669494629, 3.141434669494629"/>
		<path d="M229.862, 144.335l2.138.023" style="fill: none;stroke: #a67c52;stroke-linecap: round;stroke-linejoin: round;stroke-width: 1.71196305751801px"/>
		<path d="M245.131, 216.318c0-13.2, 16.051-15, 16.051-21.051, 0-2.9-2-3.7-3.851-3.7-3.4, 0-5.75, 4.1-5.75, 4.1l-6.051-4.15a13.79, 13.79, 0, 0, 1, 12.6-7.7c5.85, 0, 12.3, 3.351, 12.3, 10.951, 0, 10.5-15.4, 12.851-15.651, 18.4h9v-4.25h7.5v11.25H245.53A21.89, 21.89, 0, 0, 1, 245.131, 216.318Z" style="fill: #fff"/>
		<path d="M281.167, 205.206c.438-.039, 1.171-.07, 2.134-.095" style="fill: none;stroke: #a67c52;stroke-linecap: round;stroke-linejoin: round;stroke-width: 1.71196305751801px"/>
		<path d="M286.441, 205.06c3.011-.031, 6.916-.034, 10.992-.022" style="fill: none;stroke: #a67c52;stroke-linecap: round;stroke-linejoin: round;stroke-width: 1.71196305751801px;stroke-dasharray: 3.141434669494629, 3.141434669494629, 3.141434669494629, 3.141434669494629"/>
		<path d="M299.005, 205.044c6.529.025, 13.257.084, 17.283.123" style="fill: none;stroke: #a67c52;stroke-linecap: round;stroke-linejoin: round;stroke-width: 1.71196305751801px;stroke-dasharray: 3.141434669494629, 3.141434669494629, 3.141434669494629, 3.141434669494629, 3.141434669494629, 3.141434669494629"/>
		<path d="M317.862, 205.183l2.138.023" style="fill: none;stroke: #a67c52;stroke-linecap: round;stroke-linejoin: round;stroke-width: 1.71196305751801px"/>
		<path d="M193.167, 205.206c.438-.039, 1.171-.07, 2.134-.095" style="fill: none;stroke: #a67c52;stroke-linecap: round;stroke-linejoin: round;stroke-width: 1.71196305751801px"/>
		<path d="M198.441, 205.06c3.011-.031, 6.916-.034, 10.992-.022" style="fill: none;stroke: #a67c52;stroke-linecap: round;stroke-linejoin: round;stroke-width: 1.71196305751801px;stroke-dasharray: 3.141434669494629, 3.141434669494629, 3.141434669494629, 3.141434669494629"/>
		<path d="M211.005, 205.044c6.529.025, 13.257.084, 17.283.123" style="fill: none;stroke: #a67c52;stroke-linecap: round;stroke-linejoin: round;stroke-width: 1.71196305751801px;stroke-dasharray: 3.141434669494629, 3.141434669494629, 3.141434669494629, 3.141434669494629, 3.141434669494629, 3.141434669494629"/>
		<path d="M229.862, 205.183l2.138.023" style="fill: none;stroke: #a67c52;stroke-linecap: round;stroke-linejoin: round;stroke-width: 1.71196305751801px"/>
		<path d="M246.355, 242.218h23.6v6.2l-6.7, 8.2a9.726, 9.726, 0, 0, 1, 7.85, 9.75c0, 6.1-4.3, 12.2-13.5, 12.2a16.95, 16.95, 0, 0, 1-12.2-4.7l4.05-6.251s3.351, 3.2, 7.5, 3.2c3.25, 0, 5.1-1.8, 5.1-4.049, 0-2.4-1.951-4.051-5.651-4.051-.551, 0-1.15.05-1.751.1l-1.849-4, 6.25-7.95a15.485, 15.485, 0, 0, 1, 1.7-1.7v-.1s-1.25.15-2.25.15h-4.651v3.751h-7.5Z" style="fill: #fff"/>
		<path d="M281.167, 263.008c.438-.039, 1.171-.07, 2.134-.095" style="fill: none;stroke: #a67c52;stroke-linecap: round;stroke-linejoin: round;stroke-width: 1.71196305751801px"/>
		<path d="M286.441, 262.861c3.011-.031, 6.916-.033, 10.992-.021" style="fill: none;stroke: #a67c52;stroke-linecap: round;stroke-linejoin: round;stroke-width: 1.71196305751801px;stroke-dasharray: 3.141434669494629, 3.141434669494629, 3.141434669494629, 3.141434669494629"/>
		<path d="M299.005, 262.845c6.529.026, 13.257.084, 17.283.124" style="fill: none;stroke: #a67c52;stroke-linecap: round;stroke-linejoin: round;stroke-width: 1.71196305751801px;stroke-dasharray: 3.141434669494629, 3.141434669494629, 3.141434669494629, 3.141434669494629, 3.141434669494629, 3.141434669494629"/>
		<path d="M317.862, 262.985l2.138.023" style="fill: none;stroke: #a67c52;stroke-linecap: round;stroke-linejoin: round;stroke-width: 1.71196305751801px"/>
		<path d="M193.167, 263.008c.438-.039, 1.171-.07, 2.134-.095" style="fill: none;stroke: #a67c52;stroke-linecap: round;stroke-linejoin: round;stroke-width: 1.71196305751801px"/>
		<path d="M198.441, 262.861c3.011-.031, 6.916-.033, 10.992-.021" style="fill: none;stroke: #a67c52;stroke-linecap: round;stroke-linejoin: round;stroke-width: 1.71196305751801px;stroke-dasharray: 3.141434669494629, 3.141434669494629, 3.141434669494629, 3.141434669494629"/>
		<path d="M211.005, 262.845c6.529.026, 13.257.084, 17.283.124" style="fill: none;stroke: #a67c52;stroke-linecap: round;stroke-linejoin: round;stroke-width: 1.71196305751801px;stroke-dasharray: 3.141434669494629, 3.141434669494629, 3.141434669494629, 3.141434669494629, 3.141434669494629, 3.141434669494629"/>
		<path d="M229.862, 262.985l2.138.023" style="fill: none;stroke: #a67c52;stroke-linecap: round;stroke-linejoin: round;stroke-width: 1.71196305751801px"/>
	</g>
</svg>
