<?xml version="1.0" encoding="utf-8"?>
<svg version="1.1" id="da615514-ff38-49ec-bedd-13beff72c6f3" xmlns="http://www.w3.org/2000/svg" xmlns:xlink="http://www.w3.org/1999/xlink" x="0px" y="0px" width="500px" height="86.2px" viewBox="0 0 500 86.2" style="enable-background:new 0 0 500 86.2;" xml:space="preserve">
	<defs>
		<style type="text/css"><![CDATA[
			.st0{fill:none;}
			.st1{fill:none;stroke:#010101;stroke-width:2.1193;stroke-linecap:round;stroke-linejoin:round;}
		]]></style>
	</defs>
	<path class="st0" d="M262.8, 53.5c-1.2-0.2-2.4, 0.6-2.6, 1.8c0, 0.2, 0, 0.4, 0, 0.6c0, 2.9, 4.2, 3.8, 6.3, 3.8c1.7, 0, 3.4-0.2, 5-0.6 C269.3, 56.4, 266.7, 53.5, 262.8, 53.5z"/>
	<path class="st0" d="M152.2, 12.5h-4.3v46.6c2.7, 0.5, 5.4, 0.7, 8.1, 0.7c13.6, 0, 26.5-7.1, 26.5-22C182.5, 21.6, 168.1, 12.5, 152.2, 12.5z"/>
	<path class="st0" d="M152.2, 12.5h-4.3v46.6c2.7, 0.5, 5.4, 0.7, 8.1, 0.7c13.6, 0, 26.5-7.1, 26.5-22C182.5, 21.6, 168.1, 12.5, 152.2, 12.5z"/>
	<path d="M151.2, 10.3c-3.8, 0-7.4-0.4-11.5-0.4c-0.8, 0-1.2, 0.3-1.2, 1c0, 0.7, 0.4, 2.5, 0.4, 5.8v51.8c0, 3.3-0.4, 5.1-0.4, 5.8 c0, 0.7, 0.4, 1, 1.2, 1h7.5c0.8, 0, 1.2-0.3, 1.2-1c0-0.7-0.4-2.5-0.4-5.8v-7c2.9, 0.3, 6, 0.5, 9, 0.5c14.5, 0, 27.7-8.8, 27.7-24.2 C184.6, 18.1, 168.3, 10.3, 151.2, 10.3z M156.1, 59.9c-2.7, 0-5.4-0.3-8.1-0.8V12.4h4.3c15.9, 0, 30.3, 9.1, 30.3, 25.4 C182.5, 52.7, 169.6, 59.9, 156.1, 59.9L156.1, 59.9z"/>
	<polygon class="st0" points="196.3, 50 220.6, 50 208.5, 20.1 "/>
	<path d="M239.3, 70.8l-24.6-60.2c-0.4-0.9-0.7-1.7-1.9-1.7s-1.3, 0.6-1.8, 1.6L194.9, 50h-7.5c-1.4, 0-2.5, 0.3-2.5, 1.1 c0, 0.8, 1.1, 1.1, 2.5, 1.1h6.5c-5.8, 15.8-9.2, 21.7-9.2, 22.5c0, 0.5, 0.4, 0.7, 1.2, 0.7c0.6, 0, 1.1-0.3, 1.2-0.9c3-9.5, 6-14.9, 8.8-22.3h26.1 l8.4, 21.3c0.5, 1.3, 1.1, 1.9, 2.4, 1.9h6c1.2, 0, 2.1-0.2, 2.1-0.9C240.6, 73.2, 240, 71.9, 239.3, 70.8z M197.1, 50l12.2-29.8L221.4, 50 L197.1, 50z"/>
	<path class="st0" d="M262.8, 53.5c-1.2-0.2-2.4, 0.6-2.6, 1.8c0, 0.2, 0, 0.4, 0, 0.6c0, 2.9, 4.2, 3.8, 6.3, 3.8c1.7, 0, 3.4-0.2, 5-0.6 C269.3, 56.4, 266.7, 53.5, 262.8, 53.5z"/>
	<path d="M292.3, 74.4c-8.6, 0-13.7-7.6-17.8-14c10.5-3.2, 17.5-12.1, 17.5-22.2c0-14.8-9.3-27.9-36.1-27.9h-9.2c-0.8, 0-1.2, 0.3-1.2, 1 c0, 0.7, 0.4, 2.5, 0.4, 5.8v51.4c0, 3.3-0.4, 5.1-0.4, 5.8s0.4, 1, 1.2, 1h7.5c0.8, 0, 1.2-0.3, 1.2-1c0-0.7-0.4-2.5-0.4-5.8V12.5h4.3 c17, 0, 30.5, 8, 30.5, 25.7c0, 9.5-6.7, 17.8-16.4, 20.6c-2.5-3.3-5.7-6.9-10.3-6.9c-2.9, 0-5.1, 1.2-5.1, 4.2c0, 4.5, 6.4, 5.8, 8.6, 5.8 c2, 0, 4-0.4, 6-1c4.2, 6.8, 9.5, 15.1, 18.6, 15.1c1.6, 0, 2.6-0.2, 2.6-0.8C293.8, 74.6, 293.3, 74.4, 292.3, 74.4z M266.6, 59.8 c-2.1, 0-6.3-1-6.3-3.8c-0.1-1.2, 0.8-2.3, 2.1-2.4c0.2, 0, 0.3, 0, 0.5, 0c3.8, 0, 6.5, 2.9, 8.8, 5.6C270, 59.6, 268.3, 59.8, 266.6, 59.8 L266.6, 59.8z"/>
	<path d="M312.9, 11.3c0-0.7-0.4-1-1.2-1h-7.5c-0.8, 0-1.2, 0.3-1.2, 1s0.4, 2.5, 0.4, 5.8v51.4c0, 3.3-0.4, 5.1-0.4, 5.8c0, 0.7, 0.4, 1, 1.2, 1 h7.5c0.8, 0, 1.2-0.3, 1.2-1c0-0.7-0.4-2.5-0.4-5.8V17C312.6, 13.8, 312.9, 12, 312.9, 11.3z"/>
	<path d="M334.8, 22.2c0-7.2, 7.1-11.2, 13.6-11.2c3.3, 0, 4.7, 0.7, 6.6, 0.7c0.6, 0, 1.1-0.6, 1.1-1.2c0, 0, 0, 0, 0-0.1c0-1.1-3-1.6-6-1.6 c-10.3, 0-21.3, 6.1-21.3, 17.6c0, 19.5, 28.7, 17.5, 28.7, 34.7c0, 10-7.9, 13.4-16.9, 13.4c-9.6, 0-13.4-3.8-15.6-7.3 c-2.4-3.8-1.8-7.3-3.1-7.3c-0.8, 0.1-1.3, 0.8-1.3, 1.6c0, 9.5, 11.3, 15.3, 19.5, 15.3c11.7, 0, 24.7-5.5, 24.7-19.2 C364.8, 36.3, 334.8, 37.7, 334.8, 22.2z"/>
	<path class="st1" d="M118, 50.8c0, 0-13.8, 9.1-38.5-6.1C57.3, 31.1, 50.9, 28.6, 39.2, 28.6c-15.2, 0-28.2, 10.3-28.5, 24.5"/>
	<path class="st1" d="M65.6, 52.8c2.1, 6.2, 6.9, 9, 13.2, 9.3c7.5, 0.3, 8.6-5, 8.6-5c-0.3, 2.7-2.3, 4.9-4.9, 5.7c-4.7, 1.4-10.7, 0.4-14-3.6 c-3.3-4-5.1-13.3, 0-19.4s13.7-10.9, 28.3-10.3s25.9, 7.4, 24.9, 15.7s-14.7, 9.3-23, 8.3c-5-0.7-10.9-1.6-21.8-7.7S60.8, 37, 49.5, 34.7 c-11.4-2.3-34.4-4.1-38.2, 14.5C7.9, 65.2, 21.5, 70.3, 31.8, 70.3c8.8, 0, 16.1-2.9, 18.4-10.3c2.3-7.4-5.8-12.3-11.2-13 c-4.3-0.6-9.2, 0.2-12, 3.4c-0.8, 0.9-1.4, 1.9-1.7, 3c0, 0, 1.2-5.5, 5.6-7.6c4.3-1.9, 9.3-1.5, 13.2, 1.1c4.2, 2.8, 6.6, 6, 6.5, 10.2"/>
	<path class="st1" d="M491.3, 53.1c-0.2-14.2-13.2-24.5-28.5-24.5c-11.7, 0-18.1, 2.5-40.3, 16.1c-24.8, 15.2-38.6, 6.1-38.6, 6.1"/>
	<path class="st1" d="M451.4, 57c-0.1-4.2, 2.3-7.4, 6.5-10.2c3.9-2.6, 8.9-3, 13.2-1.1c4.5, 2.1, 5.6, 7.6, 5.6, 7.6c-0.4-1.1-0.9-2.1-1.7-3 c-2.8-3.1-7.8-4-12-3.4c-5.4, 0.7-13.5, 5.7-11.2, 13s9.6, 10.3, 18.4, 10.3c10.3, 0, 23.9-5.1, 20.6-21.1c-3.8-18.5-26.9-16.8-38.2-14.5 c-11.3, 2.3-16.4, 5.1-27.3, 11.2c-11, 6.1-16.9, 7-21.8, 7.7c-8.3, 1.1-22, 0-23-8.3s10.3-15.1, 24.9-15.7c14.6-0.6, 23.4, 4.1, 28.4, 10.2 c5, 6.1, 3.3, 15.4, 0, 19.4c-3.3, 4-9.3, 5.1-14, 3.6c-2.6-0.7-4.6-2.9-4.9-5.7c0, 0, 1, 5.3, 8.6, 5c6.4-0.3, 11.2-3.1, 13.2-9.3"/>
</svg>