<svg id="Layer_1" data-name="Layer 1" xmlns="http://www.w3.org/2000/svg" viewBox="0 0 150 25">
	<!--
		This file was provided as part of a weekly web design tutorial series.
		Sign-up for our newsletter, at http://codifydesign.com, to be notified
		about each new episode of CSS Shorts
	-->
	 <defs>
		<style type="text/css"><![CDATA[
			path { fill: #fff; }
		]]></style>
	</defs>
	<title>Travel Company</title>
	<path d="M18.673,9.867a3,3,0,1,0-3-3A3,3,0,0,0,18.673,9.867Zm-15.06.72a2.5,2.5,0,1,0,2.5,2.5A2.5,2.5,0,0,0,3.613,10.587Zm5.34,5.2a2,2,0,1,0,2,2A2,2,0,0,0,8.953,15.787Zm.72-5.92a2,2,0,1,0,2,2A2,2,0,0,0,9.673,9.867Zm7.86,5.64a4.5,4.5,0,1,0,4.5,4.5A4.5,4.5,0,0,0,17.533,15.507Zm-2-1.72a1.5,1.5,0,1,0-1.5-1.5A1.5,1.5,0,0,0,15.533,13.787Zm5.42-.26a.5.5,0,1,0,.5-.5A.5.5,0,0,0,20.953,13.527ZM9.393.587a4,4,0,1,0,4,4A4,4,0,0,0,9.393.587Z"/>
	<path d="M28.653,9.655H25.475V8.023h8.684V9.655H30.98v6.932H28.653Z"/>
	<path d="M34.966,8.023h6.225c2.375,0,2.771,1.451,2.771,2.327a1.951,1.951,0,0,1-1.392,2.063v.024c1.02.156,1.176,1.451,1.176,2.291a3.164,3.164,0,0,0,.443,1.859H41.647a3.148,3.148,0,0,1-.228-1.643c0-1.2-.516-1.5-1.235-1.5H37.293v3.142H34.966Zm2.327,3.79h3.083a1.038,1.038,0,0,0,1.115-1.091c0-.852-.671-1.067-1.235-1.067H37.293Z"/>
	<path d="M51.342,14.824H47.409l-.7,1.763H44.207l3.766-8.563h2.807l3.766,8.563H52.038ZM49.375,9.871l-1.343,3.394h2.687Z"/>
	<path d="M53.675,8.023h2.555l2.482,6.524,2.482-6.524h2.555l-3.8,8.563H57.477Z"/>
	<path d="M64.306,8.023h8V9.655H66.633V11.43h5.385v1.559H66.633v1.967h5.721v1.631H64.306Z"/>
	<path d="M73.642,8.023h2.327v6.86h5.217v1.7H73.642Z"/>
	<path d="M90.773,13.325A3.96,3.96,0,0,1,86.539,16.8a4.228,4.228,0,0,1-4.557-4.5,4.319,4.319,0,0,1,4.557-4.5c1.871,0,3.9.852,4.162,3.106h-.888c-.264-1.631-1.727-2.291-3.274-2.291a3.317,3.317,0,0,0-3.6,3.682,3.357,3.357,0,0,0,3.6,3.682,3.02,3.02,0,0,0,3.347-2.663Z"/>
	<path d="M96.379,7.808a4.333,4.333,0,0,1,4.653,4.5,4.656,4.656,0,0,1-9.307,0A4.333,4.333,0,0,1,96.379,7.808Zm0,8.18a3.456,3.456,0,0,0,3.693-3.682,3.694,3.694,0,0,0-7.388,0A3.456,3.456,0,0,0,96.379,15.987Z"/>
	<path d="M111.208,8.023h1.259v8.563h-.887v-7.4h-.024l-3.778,7.4h-.815L103.2,9.175h-.024v7.412h-.887V8.023h1.295l3.813,7.448Z"/>
	<path d="M114.2,8.023h4.617a2.326,2.326,0,0,1,2.579,2.471c0,1.619-1.067,2.495-2.975,2.495h-3.334v3.6H114.2Zm.888,4.15h3.43c1.487,0,1.919-.684,1.919-1.679,0-1.283-.72-1.655-1.739-1.655h-3.609Z"/>
	<path d="M127.83,13.984h-4.51l-1.163,2.6h-.96l3.886-8.563h1.032L130,16.587H128.97Zm-2.243-5.073-1.906,4.258h3.789Z"/>
	<path d="M130.726,8.023h1.067l5.984,7.316h.023V8.023h.888v8.563h-1.031l-6.021-7.316h-.024v7.316h-.887Z"/>
	<path d="M143.155,12.989l-3.85-4.965h1.151L143.6,12.1l3.143-4.078h1.151l-3.85,4.965v3.6h-.888Z"/>
</svg>