<svg id="plane_shape" data-name="plane shape" xmlns="http://www.w3.org/2000/svg" viewBox="0 0 170 120">
  <defs>
    <style>
      .cls-1 {
        fill: #6ecff6;
      }
      .cls-2 {
        fill: #233e71;
        stroke: #6dcff6;
        stroke-width: 2px;
      }
      .cls-3 {
        fill: #fff;
        fill-rule: evenodd;
      }
    </style>
  </defs>
  <title>Artboard 1</title>
  <path class="cls-1" d="M11.893,117.083C11.893,57.782,81.4,9.709,167.14,9.709H11.86Z"/>
  <circle class="cls-2" cx="24.517" cy="24.423" r="22.797"/>
  <path class="cls-3" d="M30.792,16.411c.538-.976,1.11-3.708.135-4.246s-3.129,1.321-3.668,2.3l-1.083,1.962-.379.687-1.218,2.207a.5.5,0,0,1-.389.249v.009L12.208,20.857l-.488.884L21.763,22.99v0a.493.493,0,0,1,.182.057.5.5,0,0,1,.2.685l-2.97,6.427a.5.5,0,0,1-.3.241h0l-3.911,1.13-.464.84,5.029-.217v.007a.45.45,0,0,1,.417.23l.006,0,2.5,4.37.464-.84-1.13-3.911a.5.5,0,0,1,.043-.384l3.854-5.939a.5.5,0,0,1,.685-.2.493.493,0,0,1,.145.124h0l6.411,7.831.488-.884L28.1,21.734l.009,0a.494.494,0,0,1,0-.462l1.218-2.207C29.135,19.241,30.792,16.411,30.792,16.411Z"/>
</svg>