<svg id="Layer_1" data-name="Layer 1" xmlns="http://www.w3.org/2000/svg" viewBox="0 0 95 35">
  <title>new</title>
  <polygon points="94.428 34.934 0 34.934 0 0 94.428 0 82.409 17.033 94.428 34.934" style="fill: #fdb515"/>
  <g style="isolation: isolate">
    <path d="M27.553,27.057H23.02L15.7,14.458h-.1q.218,3.338.219,4.761v7.837H12.631V10.4h4.5l7.305,12.473h.081q-.172-3.246-.172-4.59V10.4h3.209Z" style="fill: #fff"/>
    <path d="M41.474,27.057H31.787V10.4h9.687V13.3H35.353v3.656h5.695v2.894H35.353v4.294h6.121Z" style="fill: #fff"/>
    <path d="M61.364,27.057H57.3l-2.278-8.748q-.126-.467-.432-1.931t-.351-1.965q-.069.615-.345,1.976t-.426,1.942l-2.267,8.726h-4.05L42.865,10.4h3.509l2.151,9.09q.564,2.518.817,4.362.069-.649.315-2.01t.467-2.113l2.45-9.329h3.371l2.45,9.329q.161.627.4,1.914t.368,2.209q.116-.888.368-2.215T60,19.493l2.141-9.09h3.509Z" style="fill: #fff"/>
  </g>
</svg>
