<svg id="Layer_1" data-name="Layer 1" xmlns="http://www.w3.org/2000/svg" viewBox="0 0 95 35">
  <title>sale</title>
  <polygon points="94.44 34.938 0 34.938 0 0 94.44 0 82.42 17.036 94.44 34.938" style="fill: #ed1c29"/>
  <g style="isolation: isolate">
    <path d="M22.563,22.436a4.287,4.287,0,0,1-1.64,3.554,7.171,7.171,0,0,1-4.562,1.3,10.8,10.8,0,0,1-4.763-1V23.005a19.774,19.774,0,0,0,2.882,1.06,8.6,8.6,0,0,0,2.157.308,3.094,3.094,0,0,0,1.8-.444,1.513,1.513,0,0,0,.627-1.321,1.442,1.442,0,0,0-.276-.871A3.063,3.063,0,0,0,17.978,21,21.1,21.1,0,0,0,15.8,19.873a10.341,10.341,0,0,1-2.312-1.378,5.168,5.168,0,0,1-1.231-1.538,4.356,4.356,0,0,1-.46-2.051,4.284,4.284,0,0,1,1.513-3.475,6.332,6.332,0,0,1,4.183-1.265,9.975,9.975,0,0,1,2.5.308,17.3,17.3,0,0,1,2.49.866l-1.15,2.745a16.861,16.861,0,0,0-2.227-.763,7.224,7.224,0,0,0-1.731-.217,2.306,2.306,0,0,0-1.553.467,1.532,1.532,0,0,0-.541,1.22,1.5,1.5,0,0,0,.219.814,2.391,2.391,0,0,0,.7.672,21.8,21.8,0,0,0,2.262,1.168,8.991,8.991,0,0,1,3.232,2.238A4.339,4.339,0,0,1,22.563,22.436Z" style="fill: #fff"/>
    <path d="M35.909,27.061,34.689,23.1H28.557l-1.22,3.965H23.494l5.938-16.724h4.36l5.96,16.724Zm-2.071-6.926q-1.69-5.389-1.9-6.095t-.3-1.117q-.379,1.459-2.175,7.212Z" style="fill: #fff"/>
    <path d="M41.869,27.061V10.406h3.566V24.145h6.823v2.916Z" style="fill: #fff"/>
    <path d="M64.869,27.061H55.182V10.406h9.687V13.3H58.748v3.657h5.7V19.85h-5.7v4.295h6.121Z" style="fill: #fff"/>
  </g>
</svg>
