<svg xmlns="http://www.w3.org/2000/svg" viewBox="0 0 95.789 95.791">
  <title>Layer 1</title>
  <g id="Layer_2" data-name="Layer 2">
    <g id="Layer_1-2" data-name="Layer 1">
      <g>
        <path d="M77.854,75.678c-1.348-3.174-17.9-8.038-19.268-8.12a4.461,4.461,0,0,0-1.1.084c-2.26.462-4.742,2.6-9.966,7.227-5.884-2.719-13.938-9.977-17.732-14.26-4.107-4.624-9.232-12.415-11.077-18.236,5.952-5.276,8.434-7.567,8.592-10.114.085-1.371-2.757-18.381-5.747-20.106-.263-.149-.564-.348-.9-.564-1.9-1.228-4.782-3.084-7.977-2.429a6.793,6.793,0,0,0-2.234.9c-2.151,1.35-7.4,5-9.795,9.763C-.832,22.794-1.5,49.88,18.793,72.767,38.849,95.4,63.585,96.387,67.3,95.627l.1-.021.328-.093c5.013-1.8,9.269-6.58,10.868-8.557,2.947-3.645.842-7.98-.292-10.307C78.132,76.287,77.974,75.962,77.854,75.678Z" style="fill: #010101"/>
        <path d="M52.158,43.631a5.874,5.874,0,0,1,1.532,5.355l6.11-.073A11.831,11.831,0,0,0,46.873,35.989L46.8,42.1A5.87,5.87,0,0,1,52.158,43.631Z" style="fill: #010101"/>
        <path d="M71.774,48.773l6-.07A29.71,29.71,0,0,0,47.083,18.011l-.064,6.007A23.7,23.7,0,0,1,71.774,48.773Z" style="fill: #010101"/>
        <path d="M81.794,14A47.735,47.735,0,0,0,47.3,0l-.07,6.007A41.735,41.735,0,0,1,89.775,48.559l6.01-.07A47.744,47.744,0,0,0,81.794,14Z" style="fill: #010101"/>
      </g>
    </g>
  </g>
</svg>
